<?xml version="1.0" standalone="no"?>
<!DOCTYPE svg PUBLIC "-//W3C//DTD SVG 1.1//EN" "http://www.w3.org/Graphics/SVG/1.1/DTD/svg11.dtd">
<svg xmlns="http://www.w3.org/2000/svg">
<defs >
<font id="Nunito" horiz-adv-x="609" ><font-face
    font-family="Nunito ExtraBold"
    units-per-em="1000"
    panose-1="0 0 0 0 0 0 0 0 0 0"
    ascent="1011"
    descent="-353"
    alphabetic="0" />
<glyph unicode=" " glyph-name="space" horiz-adv-x="279" />
<glyph unicode="!" glyph-name="exclam" horiz-adv-x="260" d="M131 217Q84 217 79 272L47 614Q42 658 64 686T131 714Q174 714 196 686T213 614L181 272Q175 217 131 217ZM131 -5Q91 -5 68 19T44 81Q44 118 67 141T131 165Q171 165 193 142T216 81Q216 43 194
19T131 -5Z" />
<glyph unicode="&quot;" glyph-name="quotedbl" horiz-adv-x="481" d="M128 398Q106 398 90 413T71 456L51 626Q47 663 69 688T128 714Q164 714 186 689T205 626L185 456Q182 429 167 414T128 398ZM353 398Q331 398 315 413T296 456L276 626Q272 663 294 688T353
714Q389 714 411 689T430 626L410 456Q407 429 392 414T353 398Z" />
<glyph unicode="#" glyph-name="numbersign" horiz-adv-x="600" d="M129 -9Q102 -9 92 7T87 49L109 166H96Q43 166 43 212Q43 259 96 259H127L165 454H118Q64 454 64 502Q64 547 118 547H182L206 666Q216 714 263 714Q288 714 299 699T304 656L283 547H390L413
666Q423 714 471 714Q495 714 506 699T512 656L491 547H504Q557 547 557 502Q557 454 504 454H473L434 259H482Q536 259 536 212Q536 166 482 166H418L392 39Q382 -9 336 -9Q311 -9 300 6T294 49L317 166H210L185 39Q176 -9 129 -9ZM228 259H334L372 454H266L228
259Z" />
<glyph unicode="$" glyph-name="dollar" horiz-adv-x="600" d="M310 -124Q284 -124 267 -107T250 -64V-5Q192 -1 148 13T72 44Q44 58 37 83T39 132T71 166T125 162Q149 149 192 136T297 122Q366 122 395 144T424 199Q424 226 404 244T332 273L222 297Q40 337 40
491Q40 575 97 633T250 706V769Q250 794 267 811T310 829Q335 829 352 812T369 769V709Q406 704 445 691T515 657Q539 642 544 619T540 574T508 545T453 552Q426 565 394 574T315 583Q257 583 224 559T191 497Q191 470 210 453T279 424L390 400Q485 379 530 332T576
210Q576 125 519 70T369 -1V-64Q369 -89 352 -106T310 -124Z" />
<glyph unicode="%" glyph-name="percent" horiz-adv-x="954" d="M346 13Q331 -13 309 -17T268 -10T242 22T249 69L608 691Q623 717 645 721T686 715T712 683T705 636L346 13ZM220 285Q133 285 85 343T37 501Q37 600 85 658T220 716Q306 716 354 658T403 501Q403
402 355 344T220 285ZM220 381Q249 381 265 409T282 501Q282 564 266 591T220 619Q190 619 174 592T158 501Q158 436 174 409T220 381ZM735 -11Q648 -11 600 47T552 206Q552 305 600 362T735 420Q821 420 869 362T918 206Q918 106 870 48T735 -11ZM735 86Q765 86
781 114T797 206Q797 268 781 296T735 324Q705 324 689 297T673 206Q673 141 689 114T735 86Z" />
<glyph unicode="&amp;" glyph-name="ampersand" horiz-adv-x="745" d="M309 -11Q231 -11 174 14T85 83T54 186Q54 254 92 303T194 389L195 390Q160 426 143 463T126 540Q126 592 152 631T225 693T334 716Q420 716 470 672T520 555Q520 500 490 455T395 371L514
249Q527 277 536 309T552 378Q563 438 618 438Q649 438 664 421T676 371Q668 311 649 259T603 163L678 90Q702 67 702 45T685 7T637 -9Q610 -9 593 1T556 32L520 69Q476 31 422 10T309 -11ZM334 613Q302 613 283 594T264 544Q264 520 275 500T315 449Q361 474 380
497T399 549Q399 581 382 597T334 613ZM318 106Q385 106 436 150L276 310Q204 266 204 198Q204 155 233 131T318 106Z" />
<glyph unicode="&apos;" glyph-name="quotesingle" horiz-adv-x="256" d="M128 398Q106 398 90 413T71 456L51 626Q47 663 69 688T128 714Q164 714 186 689T205 626L185 456Q182 429 167 414T128 398Z" />
<glyph unicode="(" glyph-name="parenleft" horiz-adv-x="382" d="M220 -159Q154 -62 127 45T99 263Q99 373 127 480T220 685Q233 706 255 711T297 708T327 678T325 622Q291 528 276 443T261 263Q261 168 277 84T325 -96Q336 -130 327 -152T298 -182T255 -185T220 -159Z" />
<glyph unicode=")" glyph-name="parenright" horiz-adv-x="382" d="M162 -159Q149 -179 127 -184T85 -182T55 -152T57 -96Q91 -2 106 83T121 263Q121 358 105 442T57 622Q45 656 54 677T84 708T127 712T162 685Q226 588 254 481T283 263Q283 153 255 46T162 -159Z" />
<glyph unicode="*" glyph-name="asterisk" horiz-adv-x="454" d="M125 352Q104 365 101 384T112 426L149 482L85 478Q59 476 43 488T27 525Q27 549 43 561T85 572L150 567L113 624Q98 646 101 665T126 697Q147 710 166 702T196 668L227 599L259 668Q269 693 288
701T329 697Q351 684 353 665T341 623L304 567L369 572Q396 573 411 561T427 525Q427 501 412 489T369 478L304 482L341 426Q356 404 354 385T329 353Q307 340 289 348T259 381L227 452L194 381Q183 357 165 349T125 352Z" />
<glyph unicode="+" glyph-name="plus" horiz-adv-x="600" d="M300 31Q246 31 246 86V235H100Q47 235 47 287Q47 339 100 339H246V482Q246 537 300 537Q354 537 354 482V339H500Q553 339 553 287Q553 235 500 235H354V86Q354 31 300 31Z" />
<glyph unicode="," glyph-name="comma" horiz-adv-x="260" d="M151 -114Q136 -132 119 -134T90 -128T77 -103T91 -67Q104 -51 111 -36T123 -5Q87 -2 66 21T44 81Q44 118 67 141T130 165Q170 165 193 138T217 60Q217 21 205 -21T151 -114Z" />
<glyph unicode="-" glyph-name="hyphen" horiz-adv-x="440" d="M117 209Q92 209 75 226T57 268Q57 294 74 311T117 328H323Q348 328 365 311T383 268Q383 243 366 226T323 209H117Z" />
<glyph unicode="." glyph-name="period" horiz-adv-x="260" d="M131 -5Q91 -5 68 19T44 81Q44 118 67 141T131 165Q171 165 193 142T216 81Q216 43 194 19T131 -5Z" />
<glyph unicode="/" glyph-name="slash" horiz-adv-x="331" d="M108 -26Q99 -54 78 -63T34 -66T0 -40T-3 9L223 714Q232 742 253 751T297 754T331 729T334 680L108 -26Z" />
<glyph unicode="0" glyph-name="zero" horiz-adv-x="600" d="M300 -11Q172 -11 105 84T37 355Q37 531 104 623T300 716Q428 716 495 624T563 355Q563 179 496 84T300 -11ZM300 115Q358 115 386 172T414 355Q414 480 386 535T300 590Q242 590 214 535T186 355Q186
230 214 173T300 115Z" />
<glyph unicode="1" glyph-name="one" horiz-adv-x="600" d="M157 0Q91 0 91 64Q91 127 157 127H258V533L185 489Q156 472 133 480T98 510T91 557T124 601L263 685Q284 698 305 706T348 714Q378 714 395 698T413 651V127H504Q569 127 569 64Q569 0 504 0H157Z" />
<glyph unicode="2" glyph-name="two" horiz-adv-x="600" d="M138 0Q100 0 83 17T66 69Q66 91 77 110T107 149L295 347Q337 392 355 427T374 497Q374 587 263 587Q234 587 204 579T140 551Q113 535 91 544T58 575T52 621T85 662Q129 689 181 702T284 716Q402 716
464 664T527 514Q527 450 498 392T401 265L265 127H497Q562 127 562 64Q562 0 497 0H138Z" />
<glyph unicode="3" glyph-name="three" horiz-adv-x="600" d="M283 -11Q230 -11 176 1T81 37Q49 54 41 79T43 127T78 158T133 153Q172 134 207 126T277 118Q399 118 399 209Q399 293 285 293H226Q193 293 176 309T158 355Q158 385 175 401T226 418H270Q320 418
349 441T378 505Q378 587 271 587Q238 587 208 580T141 553Q113 539 91 548T59 579T54 625T89 665Q176 716 285 716Q399 716 463 665T527 525Q527 470 499 428T421 367Q481 350 514 305T548 195Q548 99 477 44T283 -11Z" />
<glyph unicode="4" glyph-name="four" horiz-adv-x="600" d="M410 -9Q373 -9 353 11T333 69V126H109Q72 126 50 142T28 193Q28 213 37 233T69 286L328 663Q345 689 365 701T414 714Q447 714 466 695T485 636V248H522Q589 248 589 187Q589 126 522 126H485V69Q485
31 466 11T410 -9ZM333 248V481L175 248H333Z" />
<glyph unicode="5" glyph-name="five" horiz-adv-x="600" d="M301 -11Q250 -11 196 1T97 41Q68 57 62 82T65 130T99 162T152 156Q222 118 298 118Q355 118 386 146T418 221Q418 269 388 298T305 327Q279 327 252 319T198 289Q188 281 172 274T138 267Q77 267 77
324V638Q77 705 144 705H465Q532 705 532 641Q532 578 465 578H226V420Q275 452 344 452Q411 452 461 424T539 344T567 226Q567 155 535 102T443 19T301 -11Z" />
<glyph unicode="6" glyph-name="six" horiz-adv-x="600" d="M327 -11Q192 -11 119 81T45 343Q45 520 128 618T358 716Q401 716 445 704T527 668Q552 654 557 630T554 584T523 552T471 556Q440 573 412 580T356 587Q192 587 192 372V353Q213 403 257 430T358 458Q418
458 464 429T538 348T565 230Q565 160 535 106T451 20T327 -11ZM319 110Q365 110 393 141T422 224Q422 274 394 306T319 338Q272 338 244 306T215 224Q215 173 243 142T319 110Z" />
<glyph unicode="7" glyph-name="seven" horiz-adv-x="600" d="M175 -9Q131 -9 114 20T119 89L382 577H106Q39 577 39 641Q39 705 106 705H487Q519 705 539 688T560 640Q560 613 553 593T533 550L263 41Q236 -9 175 -9Z" />
<glyph unicode="8" glyph-name="eight" horiz-adv-x="600" d="M300 -11Q174 -11 103 42T32 192Q32 254 63 299T147 363Q103 385 77 427T50 524Q50 614 117 665T300 716Q415 716 483 665T551 524Q551 469 525 426T454 363Q506 343 537 298T568 192Q568 96 497 43T300
-11ZM300 416Q351 416 379 440T408 507Q408 549 380 573T300 597Q249 597 221 573T193 507Q193 465 221 441T300 416ZM300 108Q426 108 426 203Q426 297 300 297Q239 297 207 274T174 203Q174 156 206 132T300 108Z" />
<glyph unicode="9" glyph-name="nine" horiz-adv-x="600" d="M242 -11Q199 -11 155 1T73 37Q48 51 43 75T46 121T77 153T129 149Q160 132 188 125T244 118Q408 118 408 333V352Q387 302 343 275T242 247Q182 247 136 276T62 357T35 475Q35 545 65 599T149 685T273
716Q408 716 481 624T555 362Q555 185 472 87T242 -11ZM282 368Q328 368 357 399T386 482Q386 533 357 564T282 596Q236 596 207 565T178 482Q178 431 207 400T282 368Z" />
<glyph unicode=":" glyph-name="colon" horiz-adv-x="260" d="M131 326Q91 326 68 349T44 411Q44 449 67 472T131 496Q171 496 193 473T216 411Q216 373 194 350T131 326ZM131 -5Q91 -5 68 19T44 81Q44 118 67 141T131 165Q171 165 193 142T216 81Q216 43 194 19T131 -5Z" />
<glyph unicode=";" glyph-name="semicolon" horiz-adv-x="260" d="M131 326Q91 326 68 349T44 411Q44 449 67 472T131 496Q171 496 193 473T216 411Q216 373 194 350T131 326ZM151 -114Q136 -132 119 -134T90 -128T77 -103T91 -67Q104 -51 111 -36T123 -5Q87 -2
66 21T44 81Q44 118 67 141T130 165Q170 165 193 138T217 60Q217 21 205 -21T151 -114Z" />
<glyph unicode="&lt;" glyph-name="less" horiz-adv-x="600" d="M489 54L104 211Q50 233 50 288Q50 341 104 363L489 521Q514 531 532 521T557 492T557 452T526 422L189 287L526 151Q550 142 557 122T557 83T532 54T489 54Z" />
<glyph unicode="=" glyph-name="equal" horiz-adv-x="600" d="M100 335Q47 335 47 387Q47 439 100 439H500Q553 439 553 387Q553 335 500 335H100ZM100 136Q47 136 47 188Q47 239 100 239H500Q553 239 553 188Q553 136 500 136H100Z" />
<glyph unicode="&gt;" glyph-name="greater" horiz-adv-x="600" d="M112 54Q87 44 69 53T44 82T44 122T75 151L412 287L75 422Q51 432 44 452T44 491T69 521T112 521L497 363Q551 341 551 288Q551 233 497 211L112 54Z" />
<glyph unicode="?" glyph-name="question" horiz-adv-x="468" d="M231 218Q209 218 197 232T184 272Q184 315 200 352T255 431Q283 461 294 482T305 527Q305 555 285 571T226 587Q190 587 160 578T100 552Q67 535 44 543T12 575T11 624T53 668Q94 691 143 703T237
716Q303 716 353 695T430 635T458 545Q458 499 438 460T365 378Q318 339 301 312T279 253Q276 237 265 228T231 218ZM229 -5Q189 -5 166 19T142 81Q142 118 165 141T229 165Q269 165 291 142T314 81Q314 43 292 19T229 -5Z" />
<glyph unicode="@" glyph-name="at" horiz-adv-x="952" d="M487 -166Q390 -166 310 -135T171 -47T82 89T50 265Q50 401 107 502T266 659T506 716Q625 716 714 670T853 539T902 340Q902 254 878 191T809 94T706 59Q605 59 577 142Q550 100 513 80T433 59Q352 59
307 110T262 249Q262 322 289 379T365 468T475 501Q559 501 593 435L595 443Q604 493 655 493Q683 493 696 478T704 433L673 260Q666 223 666 202Q666 145 713 145Q757 145 784 199T812 340Q812 478 731 552T505 627Q397 627 318 583T195 457T151 265Q151 158 192
82T308 -36T487 -77Q548 -77 599 -63T694 -23Q716 -10 732 -15T756 -37T759 -71T733 -102Q688 -131 625 -148T487 -166ZM457 151Q508 151 540 197T572 320Q572 408 496 408Q444 408 411 365T378 250Q378 201 398 176T457 151Z" />
<glyph unicode="A" glyph-name="A" horiz-adv-x="753" d="M91 -9Q49 -9 31 19T32 88L288 649Q304 683 326 698T377 714Q406 714 428 699T465 649L723 88Q742 46 725 19T668 -9Q634 -9 616 7T583 57L541 153H212L171 57Q156 22 139 7T91 -9ZM375 540L264 274H490L377
540H375Z" />
<glyph unicode="B" glyph-name="B" horiz-adv-x="695" d="M152 0Q71 0 71 81V624Q71 705 152 705H394Q507 705 568 656T630 522Q630 466 602 426T524 365Q584 348 616 305T649 199Q649 105 584 53T405 0H152ZM219 415H367Q481 415 481 503Q481 590 367 590H219V415ZM219
115H384Q444 115 472 138T500 208Q500 254 472 277T384 300H219V115Z" />
<glyph unicode="C" glyph-name="C" horiz-adv-x="684" d="M413 -11Q299 -11 218 34T94 160T50 353Q50 463 93 544T218 671T413 716Q463 716 514 703T604 668Q635 650 642 623T638 572T602 538T548 545Q518 563 485 571T418 579Q317 579 266 521T214 353Q214 244
265 185T418 126Q450 126 483 134T548 159Q580 176 604 167T639 135T645 86T611 42Q573 17 520 3T413 -11Z" />
<glyph unicode="D" glyph-name="D" horiz-adv-x="774" d="M152 0Q71 0 71 81V624Q71 705 152 705H347Q527 705 626 614T725 353Q725 184 626 92T347 0H152ZM226 127H338Q563 127 563 353Q563 578 338 578H226V127Z" />
<glyph unicode="E" glyph-name="E" horiz-adv-x="605" d="M152 0Q71 0 71 81V624Q71 705 152 705H501Q562 705 562 645Q562 584 501 584H219V419H478Q540 419 540 358Q540 297 478 297H219V121H501Q562 121 562 61Q562 0 501 0H152Z" />
<glyph unicode="F" glyph-name="F" horiz-adv-x="570" d="M150 -9Q112 -9 92 12T71 73V624Q71 705 152 705H494Q555 705 555 645Q555 584 494 584H226V412H472Q534 412 534 352Q534 291 472 291H226V73Q226 -9 150 -9Z" />
<glyph unicode="G" glyph-name="G" horiz-adv-x="742" d="M420 -11Q301 -11 219 34T93 160T50 350Q50 462 94 544T223 671T425 716Q479 716 533 704T637 664Q664 649 669 624T664 576T631 542T577 546Q510 581 426 581Q319 581 266 522T212 350Q212 237 266 179T428
121Q485 121 548 139V277H458Q396 277 396 333Q396 389 458 389H615Q676 389 676 327V95Q676 69 666 51T632 25Q587 9 531 -1T420 -11Z" />
<glyph unicode="H" glyph-name="H" horiz-adv-x="780" d="M149 -9Q111 -9 91 12T71 71V634Q71 714 149 714Q226 714 226 634V422H554V634Q554 714 631 714Q709 714 709 634V71Q709 33 689 12T631 -9Q594 -9 574 12T554 71V293H226V71Q226 -9 149 -9Z" />
<glyph unicode="I" glyph-name="I" horiz-adv-x="297" d="M149 -9Q111 -9 91 12T71 71V634Q71 714 149 714Q226 714 226 634V71Q226 -9 149 -9Z" />
<glyph unicode="J" glyph-name="J" horiz-adv-x="372" d="M57 -8Q23 -9 4 10T-15 59Q-15 82 -2 99T38 118L67 120Q147 125 147 204V635Q147 673 167 693T224 714Q302 714 302 635V206Q302 7 92 -6L57 -8Z" />
<glyph unicode="K" glyph-name="K" horiz-adv-x="688" d="M149 -9Q111 -9 91 12T71 71V635Q71 673 91 693T149 714Q226 714 226 635V398H228L494 676Q511 694 529 703T572 713Q606 713 622 695T636 653T614 608L379 368L628 103Q651 78 651 52T635 9T583 -9Q554
-9 537 3T498 38L228 322H226V71Q226 33 207 12T149 -9Z" />
<glyph unicode="L" glyph-name="L" horiz-adv-x="573" d="M150 0Q111 0 91 20T71 79V628Q71 666 91 686T149 707Q226 707 226 628V131H494Q561 131 561 66Q561 0 494 0H150Z" />
<glyph unicode="M" glyph-name="M" horiz-adv-x="876" d="M143 -9Q109 -9 91 10T73 63V642Q73 677 92 695T146 714Q176 714 193 702T226 663L440 272L654 663Q669 690 686 702T733 714Q767 714 785 696T804 642V63Q804 -9 734 -9Q663 -9 663 63V430L499 135Q487
116 474 107T438 97Q416 97 402 106T377 135L213 427V63Q213 -9 143 -9Z" />
<glyph unicode="N" glyph-name="N" horiz-adv-x="753" d="M143 -9Q71 -9 71 66V636Q71 674 89 694T139 714Q165 714 180 704T214 669L538 256V640Q538 714 610 714Q682 714 682 640V63Q682 30 665 11T619 -9Q591 -9 575 2T539 37L215 450V66Q215 -9 143 -9Z" />
<glyph unicode="O" glyph-name="O" horiz-adv-x="796" d="M398 -11Q294 -11 216 34T94 161T50 353Q50 463 93 544T215 671T398 716Q503 716 581 671T703 545T747 354Q747 244 704 162T582 35T398 -11ZM398 121Q486 121 535 182T585 353Q585 463 536 523T398 584Q311
584 262 524T212 353Q212 244 261 183T398 121Z" />
<glyph unicode="P" glyph-name="P" horiz-adv-x="664" d="M149 -9Q111 -9 91 12T71 71V626Q71 705 150 705H393Q511 705 575 646T639 480Q639 374 575 314T393 254H226V71Q226 33 207 12T149 -9ZM226 374H367Q490 374 490 480Q490 584 367 584H226V374Z" />
<glyph unicode="Q" glyph-name="Q" horiz-adv-x="796" d="M684 -101Q700 -127 696 -148T676 -184T638 -203T593 -199T554 -166L483 -50Q458 -11 397 -11V-11Q293 -10 215 35T94 162T50 353Q50 463 93 544T215 671T398 716Q503 716 581 671T703 545T747 354Q747
239 699 155T568 27Q612 14 644 -37L684 -101ZM398 121Q486 121 535 182T585 353Q585 463 536 523T398 584Q311 584 262 524T212 353Q212 244 261 183T398 121Z" />
<glyph unicode="R" glyph-name="R" horiz-adv-x="696" d="M149 -9Q111 -9 91 12T71 71V626Q71 705 150 705H393Q511 705 575 648T639 489Q639 410 599 358T483 286Q536 270 570 209L632 94Q653 56 640 24T577 -9Q544 -9 523 5T487 48L391 225Q376 253 354 263T302
273H226V71Q226 33 207 12T149 -9ZM226 385H365Q490 385 490 485Q490 584 365 584H226V385Z" />
<glyph unicode="S" glyph-name="S" horiz-adv-x="641" d="M323 -11Q259 -11 195 3T84 44Q56 59 49 84T52 134T84 168T137 163Q177 140 226 129T323 118Q395 118 426 140T458 197Q458 226 436 243T359 272L246 296Q57 336 57 492Q57 559 93 609T193 688T343 716Q399
716 453 703T548 663Q573 648 579 624T576 578T544 547T488 554Q455 571 418 579T342 587Q279 587 245 563T210 499Q210 470 231 452T304 423L417 399Q611 357 611 209Q611 143 576 94T476 17T323 -11Z" />
<glyph unicode="T" glyph-name="T" horiz-adv-x="632" d="M317 -9Q279 -9 259 12T239 71V577H62Q-3 577 -3 641Q-3 705 62 705H571Q636 705 636 641Q636 577 571 577H394V71Q394 33 375 12T317 -9Z" />
<glyph unicode="U" glyph-name="U" horiz-adv-x="743" d="M373 -11Q223 -11 145 66T66 295V635Q66 673 86 693T144 714Q221 714 221 635V294Q221 208 260 165T373 121Q524 121 524 294V635Q524 714 601 714Q638 714 657 694T677 635V295Q677 143 600 66T373 -11Z" />
<glyph unicode="V" glyph-name="V" horiz-adv-x="727" d="M364 -9Q332 -9 312 5T278 50L26 610Q6 655 26 684T89 714Q123 714 140 699T171 653L367 199L563 654Q575 683 593 698T644 714Q683 714 702 685T702 610L450 50Q436 20 417 6T364 -9Z" />
<glyph unicode="W" glyph-name="W" horiz-adv-x="1120" d="M332 -9Q299 -9 280 6T248 54L46 622Q32 660 51 687T116 714Q148 714 165 699T194 652L338 223L490 651Q501 683 519 698T566 714Q594 714 611 699T640 650L787 215L937 652Q947 683 965 698T1014 714Q1053
714 1071 687T1075 622L871 53Q860 22 841 7T789 -9Q757 -9 738 6T707 54L561 468L413 53Q401 22 383 7T332 -9Z" />
<glyph unicode="X" glyph-name="X" horiz-adv-x="685" d="M115 -9Q85 -9 66 7T43 48T59 99L254 357L68 605Q48 632 51 656T73 697T122 714Q167 714 203 664L343 470L482 664Q501 690 520 702T564 714Q593 714 612 698T635 657T618 605L431 357L625 99Q645 73 643
48T621 7T570 -9Q546 -9 528 3T489 42L342 243L196 42Q177 15 158 3T115 -9Z" />
<glyph unicode="Y" glyph-name="Y" horiz-adv-x="631" d="M316 -9Q278 -9 258 12T238 72V318L34 608Q20 629 22 653T42 696T93 714Q140 714 174 664L318 456L462 664Q481 691 499 702T543 714Q575 714 592 698T611 657T595 606L393 317V72Q393 -9 316 -9Z" />
<glyph unicode="Z" glyph-name="Z" horiz-adv-x="615" d="M117 0Q77 0 57 21T40 77T70 146L399 576H105Q37 576 37 641Q37 705 105 705H507Q547 705 567 684T585 629T554 559L226 129H535Q603 129 603 65Q603 0 535 0H117Z" />
<glyph unicode="[" glyph-name="bracketleft" horiz-adv-x="377" d="M167 -180Q140 -180 122 -163T104 -118V643Q104 670 122 687T167 705H311Q338 705 354 689T371 649Q371 625 355 609T311 593H255V-68H311Q338 -68 354 -84T371 -124Q371 -148 355 -164T311 -180H167Z" />
<glyph unicode="\" glyph-name="backslash" horiz-adv-x="331" d="M223 -26L-3 680Q-13 709 -1 728T34 754T77 751T108 714L334 9Q344 -21 332 -40T297 -65T254 -63T223 -26Z" />
<glyph unicode="]" glyph-name="bracketright" horiz-adv-x="377" d="M65 -180Q39 -180 23 -164T6 -124Q6 -100 22 -84T65 -68H122V593H65Q39 593 23 609T6 649Q6 673 22 689T65 705H210Q237 705 255 688T273 643V-118Q273 -145 255 -162T210 -180H65Z" />
<glyph unicode="^" glyph-name="asciicircum" horiz-adv-x="600" d="M116 131Q80 131 69 152T69 202L227 587Q247 637 300 637Q352 637 373 587L531 202Q543 173 532 152T484 131Q465 131 452 140T429 176L300 496L171 176Q161 150 149 141T116 131Z" />
<glyph unicode="_" glyph-name="underscore" horiz-adv-x="500" d="M57 -88Q37 -88 24 -76T11 -44Q11 -26 24 -13T57 0H443Q463 0 476 -13T489 -44Q489 -63 476 -75T443 -88H57Z" />
<glyph unicode="`" glyph-name="grave" horiz-adv-x="500" d="M196 562L102 692Q85 716 93 737T122 771T167 779T203 748L274 607Q283 589 277 574T256 550T224 544T196 562Z" />
<glyph unicode="a" glyph-name="a" horiz-adv-x="557" d="M224 -11Q169 -11 127 10T61 67T36 148Q36 201 64 233T155 278T322 292H358V309Q358 353 338 371T270 390Q243 390 211 384T142 362Q114 350 95 360T70 392T73 436T111 468Q158 486 199 493T276 501Q390
501 446 450T502 290V68Q502 -9 432 -9Q361 -9 361 68V74Q346 35 311 12T224 -11ZM258 90Q300 90 329 119T358 194V214H323Q246 214 214 201T182 154Q182 126 201 108T258 90Z" />
<glyph unicode="b" glyph-name="b" horiz-adv-x="610" d="M361 -11Q310 -11 269 11T207 71V68Q207 -9 133 -9Q58 -9 58 68V637Q58 714 134 714Q209 714 209 637V425Q231 460 271 480T361 501Q425 501 473 470T549 382T576 246Q576 167 549 110T474 21T361 -11ZM316
102Q364 102 394 137T424 246Q424 319 394 353T316 388Q267 388 237 354T207 246Q207 172 237 137T316 102Z" />
<glyph unicode="c" glyph-name="c" horiz-adv-x="478" d="M297 -11Q217 -11 158 20T66 110T34 247Q34 326 66 383T157 470T297 501Q328 501 363 494T432 468Q457 456 463 435T461 392T434 362T390 365Q350 386 312 386Q253 386 221 350T188 246Q188 180 220 143T312
105Q330 105 350 109T390 125Q415 138 433 128T459 98T460 55T430 21Q396 4 362 -3T297 -11Z" />
<glyph unicode="d" glyph-name="d" horiz-adv-x="610" d="M249 -11Q185 -11 137 20T61 109T34 246Q34 325 61 382T136 470T249 501Q298 501 339 480T401 424V637Q401 714 476 714Q552 714 552 637V68Q552 -9 477 -9Q402 -9 402 68V71Q382 33 341 11T249 -11ZM294
102Q342 102 372 137T403 246Q403 319 373 353T294 388Q246 388 216 354T186 246Q186 172 216 137T294 102Z" />
<glyph unicode="e" glyph-name="e" horiz-adv-x="549" d="M313 -11Q226 -11 164 20T68 109T34 245Q34 321 66 378T155 468T286 501Q393 501 456 434T519 251Q519 213 472 213H178Q186 155 220 129T316 102Q340 102 370 107T429 127Q458 141 478 133T505 104T506
63T472 27Q437 8 395 -1T313 -11ZM292 401Q244 401 215 372T178 291H394Q388 401 292 401Z" />
<glyph unicode="f" glyph-name="f" horiz-adv-x="382" d="M172 -9Q135 -9 116 11T96 68V378H60Q1 378 1 434Q1 491 60 491H96Q98 593 151 644T307 706L339 709Q372 712 387 697T404 659T395 620T361 600L347 599Q293 595 270 574T247 508V491H318Q377 491 377
434Q377 378 318 378H247V68Q247 -9 172 -9Z" />
<glyph unicode="g" glyph-name="g" horiz-adv-x="615" d="M294 -191Q240 -191 191 -182T103 -155Q74 -143 66 -121T66 -78T93 -47T135 -46Q179 -66 216 -72T281 -78Q409 -78 409 40V96Q389 58 346 35T252 12Q186 12 137 42T61 128T34 257Q34 330 61 385T137 470T252
501Q303 501 345 479T407 421V423Q407 460 426 479T482 499Q556 499 556 423V57Q556 -67 489 -129T294 -191ZM297 125Q347 125 377 160T408 257Q408 319 378 353T297 388Q246 388 216 354T186 257Q186 195 216 160T297 125Z" />
<glyph unicode="h" glyph-name="h" horiz-adv-x="595" d="M134 -9Q58 -9 58 68V637Q58 714 134 714Q209 714 209 637V424Q235 462 276 481T367 501Q540 501 540 295V68Q540 -9 464 -9Q428 -9 409 11T389 68V288Q389 339 370 361T314 384Q266 384 238 354T209 274V68Q209
-9 134 -9Z" />
<glyph unicode="i" glyph-name="i" horiz-adv-x="268" d="M134 581Q92 581 70 600T47 656Q47 693 69 712T134 732Q220 732 220 656Q220 581 134 581ZM134 -8Q97 -8 78 13T58 74V416Q58 499 134 499Q170 499 189 478T209 416V74Q209 35 190 14T134 -8Z" />
<glyph unicode="j" glyph-name="j" horiz-adv-x="273" d="M138 581Q97 581 75 600T52 656Q52 693 74 712T138 732Q224 732 224 656Q224 581 138 581ZM14 -188Q-19 -190 -36 -175T-55 -138T-46 -100T-11 -80Q28 -77 45 -59T63 -2V423Q63 499 139 499Q214 499 214
423V12Q214 -87 166 -135T14 -188Z" />
<glyph unicode="k" glyph-name="k" horiz-adv-x="558" d="M134 -9Q58 -9 58 68V637Q58 714 134 714Q209 714 209 637V288H211L356 449Q378 474 396 486T446 499Q477 499 494 484T511 445T491 399L363 256L508 89Q527 65 525 43T504 6T458 -9Q423 -9 404 4T362
44L211 212H209V68Q209 -9 134 -9Z" />
<glyph unicode="l" glyph-name="l" horiz-adv-x="333" d="M235 -11Q58 -11 58 186V637Q58 714 134 714Q209 714 209 637V192Q209 151 226 132T273 112Q281 112 288 113T303 114Q319 115 325 104T332 59Q332 1 283 -7Q273 -8 260 -9T235 -11Z" />
<glyph unicode="m" glyph-name="m" horiz-adv-x="889" d="M136 -9Q60 -9 60 68V423Q60 499 134 499Q208 499 208 423V420Q230 458 268 479T358 501Q410 501 446 478T502 408Q525 452 568 476T665 501Q749 501 790 451T831 295V68Q831 31 812 11T756 -9Q680 -9
680 68V290Q680 339 665 361T612 384Q569 384 545 354T521 269V68Q521 -9 446 -9Q410 -9 390 11T370 68V290Q370 339 354 361T302 384Q259 384 235 354T211 269V68Q211 -9 136 -9Z" />
<glyph unicode="n" glyph-name="n" horiz-adv-x="595" d="M134 -9Q58 -9 58 68V423Q58 499 132 499Q206 499 206 423V419Q231 459 273 480T367 501Q454 501 497 451T540 295V68Q540 -9 464 -9Q428 -9 409 11T389 68V288Q389 339 370 361T314 384Q266 384 238 354T209
274V68Q209 -9 134 -9Z" />
<glyph unicode="o" glyph-name="o" horiz-adv-x="589" d="M294 -11Q215 -11 157 20T66 109T34 246Q34 324 66 381T156 470T294 501Q373 501 431 470T522 382T555 246Q555 167 523 110T432 21T294 -11ZM294 102Q342 102 372 137T403 246Q403 319 373 353T294 388Q246
388 216 354T186 246Q186 172 216 137T294 102Z" />
<glyph unicode="p" glyph-name="p" horiz-adv-x="610" d="M134 -189Q58 -189 58 -112V423Q58 499 132 499Q207 499 207 423V420Q228 457 269 479T361 501Q425 501 473 470T549 382T576 246Q576 167 549 110T474 21T361 -11Q312 -11 272 10T209 66V-112Q209 -189
134 -189ZM316 102Q364 102 394 137T424 246Q424 319 394 353T316 388Q267 388 237 354T207 246Q207 172 237 137T316 102Z" />
<glyph unicode="q" glyph-name="q" horiz-adv-x="610" d="M476 -189Q401 -189 401 -112V67Q380 32 339 11T249 -11Q185 -11 137 20T61 109T34 246Q34 325 61 382T136 470T249 501Q299 501 340 479T402 420V423Q402 499 477 499Q552 499 552 423V-112Q552 -189
476 -189ZM294 102Q342 102 372 137T403 246Q403 319 373 353T294 388Q246 388 216 354T186 246Q186 172 216 137T294 102Z" />
<glyph unicode="r" glyph-name="r" horiz-adv-x="412" d="M136 -9Q58 -9 58 68V423Q58 499 132 499Q206 499 206 423V405Q242 494 355 501Q380 503 393 489T408 441Q410 410 396 392T347 370L324 368Q212 357 212 254V68Q212 -9 136 -9Z" />
<glyph unicode="s" glyph-name="s" horiz-adv-x="492" d="M246 -11Q202 -11 156 -3T71 24Q46 37 39 57T38 96T63 124T105 124Q146 107 180 100T247 93Q289 93 309 106T329 142Q329 177 278 186L173 205Q110 216 77 250T44 339Q44 389 72 425T149 481T262 501Q350
501 418 467Q441 456 446 436T444 397T418 369T375 370Q342 385 315 391T264 398Q219 398 199 384T179 347Q179 312 226 303L331 284Q396 273 430 241T464 152Q464 75 404 32T246 -11Z" />
<glyph unicode="t" glyph-name="t" horiz-adv-x="404" d="M299 -11Q92 -11 92 190V378H50Q-9 378 -9 434Q-9 491 50 491H92V567Q92 644 168 644Q243 644 243 567V491H338Q396 491 396 434Q396 378 338 378H243V196Q243 154 262 133T325 112Q340 112 353 115T377
119Q391 120 400 110T409 69Q409 44 401 27T373 1Q360 -4 338 -7T299 -11Z" />
<glyph unicode="u" glyph-name="u" horiz-adv-x="590" d="M239 -11Q145 -11 101 41T56 197V423Q56 499 131 499Q207 499 207 423V193Q207 106 282 106Q325 106 352 136T380 217V423Q380 499 455 499Q531 499 531 423V68Q531 -9 458 -9Q422 -9 403 11T384 67Q335
-11 239 -11Z" />
<glyph unicode="v" glyph-name="v" horiz-adv-x="534" d="M266 -9Q207 -9 180 53L29 401Q12 440 28 469T94 499Q121 499 138 487T168 439L271 179L377 440Q391 474 408 486T455 499Q493 499 509 470T507 402L353 53Q327 -9 266 -9Z" />
<glyph unicode="w" glyph-name="w" horiz-adv-x="861" d="M260 -9Q199 -9 175 52L34 401Q18 442 34 470T97 499Q123 499 139 487T169 439L267 176L370 452Q387 499 434 499Q481 499 499 452L601 172L701 443Q713 475 731 487T773 499Q816 499 829 469T826 401L686
52Q662 -9 601 -9Q540 -9 516 52L429 279L344 53Q321 -9 260 -9Z" />
<glyph unicode="x" glyph-name="x" horiz-adv-x="559" d="M110 -7Q82 -7 65 8T48 48T67 97L194 253L78 395Q57 421 58 445T76 484T121 499Q148 499 166 490T200 460L280 356L361 460Q377 481 395 490T440 499Q468 499 485 484T502 444T482 395L366 253L494 97Q515
72 514 48T496 9T450 -7Q424 -7 406 2T371 32L280 148L188 32Q172 13 155 3T110 -7Z" />
<glyph unicode="y" glyph-name="y" horiz-adv-x="533" d="M192 -189Q152 -189 136 -160T137 -91L190 27L27 401Q11 440 27 469T94 499Q121 499 137 487T168 439L270 179L376 440Q390 474 407 486T455 499Q493 499 508 470T507 402L272 -131Q257 -165 239 -177T192 -189Z" />
<glyph unicode="z" glyph-name="z" horiz-adv-x="480" d="M100 0Q70 0 55 19T41 67T66 119L282 378H94Q37 378 37 434Q37 491 94 491H383Q418 491 435 472T451 425T427 373L209 112H408Q465 112 465 56Q465 0 408 0H100Z" />
<glyph unicode="{" glyph-name="braceleft" horiz-adv-x="414" d="M274 -180Q211 -180 176 -145T141 -47V127Q141 167 128 185T79 204Q56 206 44 222T31 263Q31 286 43 302T79 320Q114 322 127 340T141 398V572Q141 635 176 670T274 705H346Q373 705 390 689T408
649Q408 625 394 609T356 593H330Q292 593 292 549V379Q292 337 268 304T210 262Q244 254 268 221T292 145V-24Q292 -68 331 -68H356Q380 -68 394 -84T408 -124Q408 -148 391 -164T346 -180H274Z" />
<glyph unicode="|" glyph-name="bar" horiz-adv-x="302" d="M151 -189Q76 -189 76 -113V637Q76 714 151 714Q227 714 227 637V-113Q227 -189 151 -189Z" />
<glyph unicode="}" glyph-name="braceright" horiz-adv-x="414" d="M68 -180Q41 -180 24 -164T6 -124Q6 -100 19 -84T58 -68H83Q122 -68 122 -24V145Q122 187 145 221T204 262Q169 270 146 303T122 379V549Q122 593 84 593H58Q33 593 20 609T6 649Q6 673 23 689T68
705H140Q203 705 238 670T273 572V398Q273 358 286 340T335 320Q358 319 370 303T383 262Q383 239 371 223T335 204Q300 203 287 185T273 127V-47Q273 -110 238 -145T140 -180H68Z" />
<glyph unicode="~" glyph-name="asciitilde" horiz-adv-x="600" d="M406 204Q382 204 356 212T293 239Q258 258 238 265T203 273Q188 273 174 268T146 244Q132 225 114 224T82 234T65 262T74 300Q119 371 194 371Q239 371 308 336Q339 320 360 311T397 302Q412
302 426 307T454 331Q469 350 486 351T518 341T536 312T527 275Q504 240 473 222T406 204Z" />
<glyph unicode="&#xa0;" glyph-name="uni00A0" horiz-adv-x="279" />
<glyph unicode="&#xa1;" glyph-name="exclamdown" horiz-adv-x="260" d="M131 326Q91 326 68 349T44 411Q44 449 67 472T131 496Q171 496 193 473T216 411Q216 373 194 350T131 326ZM131 -189Q87 -189 65 -161T47 -89L79 219Q86 274 131 274Q175 274 181 219L212
-89Q217 -133 196 -161T131 -189Z" />
<glyph unicode="&#xa2;" glyph-name="cent" horiz-adv-x="600" d="M319 -124Q294 -124 277 -107T260 -63V1Q174 24 126 88T77 245Q77 333 126 398T260 486V558Q260 584 277 601T319 619Q345 619 362 602T379 558V495Q409 491 438 483T492 461Q515 449 520 428T517
386T489 357T444 359Q403 381 357 381Q297 381 264 344T231 248Q231 189 263 151T356 112Q375 112 397 117T444 134Q472 146 491 137T517 107T517 64T486 29Q439 4 379 -5V-63Q379 -89 362 -106T319 -124Z" />
<glyph unicode="&#xa3;" glyph-name="sterling" horiz-adv-x="600" d="M97 0Q69 0 51 18T33 63Q33 90 51 107T97 125H117V305H84Q62 305 48 318T33 354Q33 375 47 388T84 402H117V489Q117 590 178 653T365 716Q413 716 461 703T541 670Q569 654 574 630T570 585T537
556T485 564Q459 580 431 586T375 593Q322 593 297 568T272 495V402H387Q409 402 423 389T438 354Q438 332 424 319T387 305H272V125H511Q538 125 556 108T575 63Q575 36 557 18T511 0H97Z" />
<glyph unicode="&#xa4;" glyph-name="currency" horiz-adv-x="600" d="M48 -13Q36 0 36 16T48 44L101 99Q80 130 68 167T55 245Q55 286 67 323T101 392L48 447Q36 459 36 474T48 503Q60 515 76 515T105 502L158 448Q188 469 223 481T298 493Q376 493 437 449L489
502Q502 515 519 515T550 504Q563 490 563 473T550 443L496 389Q540 325 540 245Q540 205 528 168T495 100L549 44Q561 32 561 16T550 -12Q538 -24 522 -24T494 -10L440 44Q410 22 374 10T298 -3Q259 -3 223 9T157 42L104 -11Q92 -24 76 -24T48 -13ZM298 116Q332
116 359 133T403 180T419 245Q419 281 403 310T360 357T298 375Q265 375 237 358T193 311T176 245Q176 210 192 181T236 134T298 116Z" />
<glyph unicode="&#xa5;" glyph-name="yen" horiz-adv-x="600" d="M300 -9Q263 -9 243 12T222 72V154H109Q57 154 57 202Q57 250 109 250H222V312H109Q57 312 57 360Q57 407 109 407H179L38 615Q24 634 27 657T48 697T96 714Q140 714 169 667L300 464L431 667Q447
692 464 703T506 714Q536 714 554 699T574 660T560 612L421 407H491Q543 407 543 360Q543 312 491 312H377V250H491Q543 250 543 202Q543 154 491 154H377V72Q377 -9 300 -9Z" />
<glyph unicode="&#xa6;" glyph-name="brokenbar" horiz-adv-x="302" d="M151 363Q76 363 76 439V637Q76 714 151 714Q227 714 227 637V439Q227 363 151 363ZM151 -189Q76 -189 76 -112V86Q76 163 151 163Q187 163 207 143T227 86V-112Q227 -189 151 -189Z" />
<glyph unicode="&#xa7;" glyph-name="section" horiz-adv-x="584" d="M272 -191Q163 -191 88 -153Q63 -142 57 -122T59 -82T87 -53T130 -55Q161 -69 199 -77T271 -86Q316 -86 342 -68T369 -14Q369 10 355 28T302 64L167 124Q95 157 63 199T31 297Q31 382 100 438Q72
475 72 527Q72 615 137 665T311 716Q416 716 489 679Q512 668 517 648T515 608T489 579T445 580Q415 595 380 603T311 611Q268 611 242 593T216 539Q216 515 230 497T282 461L417 401Q490 368 521 326T553 228Q553 143 484 87Q512 49 512 -2Q512 -90 447 -140T272
-191ZM164 325Q164 297 182 274T244 230L362 177Q386 166 407 151Q421 174 421 200Q421 228 402 251T340 295L222 348Q210 354 199 361T177 374Q164 351 164 325Z" />
<glyph unicode="&#xa8;" glyph-name="dieresis" horiz-adv-x="500" d="M349 585Q278 585 278 656Q278 726 349 726Q419 726 419 656Q419 585 349 585ZM152 585Q118 585 100 603T81 656Q81 690 99 708T152 726Q222 726 222 656Q222 585 152 585Z" />
<glyph unicode="&#xa9;" glyph-name="copyright" horiz-adv-x="815" d="M408 -11Q331 -11 265 17T149 94T72 210T44 353Q44 430 71 496T148 611T264 688T408 716Q485 716 551 689T666 612T743 496T771 353Q771 276 744 210T667 95T551 17T408 -11ZM408 48Q495
48 563 88T670 197T709 353Q709 440 670 508T563 617T408 657Q321 657 253 617T146 509T106 353Q106 266 145 197T253 88T408 48ZM429 137Q327 137 267 195T206 353Q206 453 266 510T429 568Q455 568 484 562T540 542Q561 533 567 514T568 477T547 450T511 452Q475
470 440 470Q390 470 362 440T333 353Q333 298 361 267T440 235Q475 235 511 252Q533 262 548 254T570 228T571 193T545 165Q518 151 488 144T429 137Z" />
<glyph unicode="&#xaa;" glyph-name="ordfeminine" horiz-adv-x="346" d="M134 406Q82 406 51 433T19 502Q19 550 60 570T187 590H224V598Q224 645 162 645Q148 645 130 642T87 632Q68 627 56 634T41 654T44 680T70 699Q96 709 121 712T170 716Q318 716 318 593V452Q318
406 274 406Q252 406 240 419T228 453V468H226Q211 438 189 422T134 406ZM160 469Q187 469 205 488T224 540V541H190Q148 541 131 533T114 505Q114 489 125 479T160 469Z" />
<glyph unicode="&#xab;" glyph-name="guillemotleft" horiz-adv-x="525" d="M217 80Q196 70 177 76T144 101L70 217Q39 265 70 315L142 431Q155 450 175 455T216 452Q238 442 246 420T242 371L193 266L242 159Q253 135 247 112T217 80ZM439 80Q418 70 399 76T366
101L292 217Q261 265 292 315L364 431Q377 450 397 455T438 452Q460 442 468 420T464 371L415 266L464 159Q475 135 469 112T439 80Z" />
<glyph unicode="&#xac;" glyph-name="logicalnot" horiz-adv-x="600" d="M490 126Q436 126 436 181V336H100Q47 336 47 387Q47 439 100 439H489Q544 439 544 384V181Q544 126 490 126Z" />
<glyph unicode="&#xad;" glyph-name="uni00AD" horiz-adv-x="440" d="M117 209Q92 209 75 226T57 268Q57 294 74 311T117 328H323Q348 328 365 311T383 268Q383 243 366 226T323 209H117Z" />
<glyph unicode="&#xae;" glyph-name="registered" horiz-adv-x="815" d="M408 -11Q331 -11 265 17T149 94T72 210T44 353Q44 430 71 496T148 611T264 688T408 716Q485 716 551 689T666 612T743 496T771 353Q771 276 744 210T667 95T551 17T408 -11ZM408 48Q495
48 563 88T670 197T709 353Q709 440 670 508T563 617T408 657Q321 657 253 617T146 509T106 353Q106 266 145 197T253 88T408 48ZM303 136Q246 136 246 194V498Q246 565 313 565H436Q508 565 547 530T586 439Q586 395 564 367T502 327Q520 322 533 306T556 256L572
204Q582 169 565 153T516 136Q496 136 483 148T465 181L441 264Q436 284 423 291T393 298H360V194Q360 136 303 136ZM359 381H420Q479 381 479 432Q479 483 420 483H359V381Z" />
<glyph unicode="&#xaf;" glyph-name="overscore" horiz-adv-x="500" d="M125 611Q81 611 81 653Q81 696 125 696H375Q420 696 420 653Q420 611 375 611H125Z" />
<glyph unicode="&#xb0;" glyph-name="degree" horiz-adv-x="384" d="M192 399Q146 399 109 419T51 476T30 558Q30 602 51 638T109 694T192 715Q238 715 274 695T332 639T354 558Q354 512 333 476T275 420T192 399ZM192 480Q224 480 245 502T266 558Q266 590 245
612T192 635Q160 635 139 613T118 558Q118 524 139 502T192 480Z" />
<glyph unicode="&#xb1;" glyph-name="plusminus" horiz-adv-x="600" d="M300 137Q246 137 246 192V287H101Q47 287 47 339Q47 391 101 391H246V485Q246 540 300 540Q354 540 354 485V391H500Q553 391 553 339Q553 287 500 287H354V192Q354 137 300 137ZM100 0Q47
0 47 52Q47 103 100 103H500Q553 103 553 52Q553 0 500 0H100Z" />
<glyph unicode="&#xb2;" glyph-name="uni00B2" horiz-adv-x="380" d="M96 282Q72 282 57 297T41 336Q41 354 49 368T71 396L162 489Q184 512 193 530T203 567Q203 612 152 612Q138 612 123 608T95 596Q74 585 58 592T34 616T33 651T61 681Q86 695 118 702T182
709Q251 709 291 676T332 585Q332 553 317 523T265 456L190 380H307Q357 380 357 331Q357 282 307 282H96Z" />
<glyph unicode="&#xb3;" glyph-name="uni00B3" horiz-adv-x="380" d="M184 277Q106 277 53 306Q32 316 27 334T28 368T51 391T91 387Q109 378 128 375T168 371Q233 371 233 415Q233 448 180 448H137Q114 448 101 460T88 494Q88 517 101 529T137 541H168Q220 541
220 577Q220 594 206 604T161 615Q128 615 98 601Q75 590 59 596T35 619T33 652T60 681Q87 695 119 702T184 709Q255 709 295 679T336 597Q336 564 318 539T271 501Q307 491 327 465T348 399Q348 343 302 310T184 277Z" />
<glyph unicode="&#xb4;" glyph-name="acute" horiz-adv-x="500" d="M305 562Q293 546 277 544T245 549T224 573T226 607L297 748Q308 770 325 776T360 777T392 759T409 729T398 692L305 562Z" />
<glyph unicode="&#xb5;" glyph-name="uni00B5" horiz-adv-x="600" d="M138 -189Q63 -189 63 -112V423Q63 499 138 499Q214 499 214 423V194Q214 108 289 108Q332 108 360 138T388 218V423Q388 499 463 499Q539 499 539 423V68Q539 -9 465 -9Q429 -9 410 9T391
55V89Q380 41 351 15T285 -11Q256 -11 236 -1T203 34L209 -110Q214 -189 138 -189Z" />
<glyph unicode="&#xb6;" glyph-name="paragraph" horiz-adv-x="645" d="M305 -189Q252 -189 252 -135V265Q186 265 136 293T59 370T31 486Q31 552 58 601T136 677T254 705H503Q575 705 575 634V-135Q575 -189 522 -189Q469 -189 469 -135V600H358V-135Q358 -189
305 -189Z" />
<glyph unicode="&#xb7;" glyph-name="middot" horiz-adv-x="260" d="M131 183Q91 183 68 207T44 269Q44 306 67 329T131 353Q171 353 193 330T216 269Q216 231 194 207T131 183Z" />
<glyph unicode="&#xb8;" glyph-name="cedilla" horiz-adv-x="500" d="M249 -197Q229 -197 208 -195T169 -186Q151 -181 145 -168T142 -142T156 -122T186 -121Q209 -129 235 -129Q287 -129 287 -103Q287 -83 250 -83Q243 -83 237 -83T222 -85Q208 -89 199 -81Q191
-73 194 -54L205 20H281L271 -34Q274 -34 277 -34Q322 -34 347 -53T373 -108Q373 -148 339 -172T249 -197Z" />
<glyph unicode="&#xb9;" glyph-name="uni00B9" horiz-adv-x="380" d="M100 282Q49 282 49 331Q49 380 100 380H157V573L124 556Q99 542 80 549T51 573T47 610T77 643L161 689Q178 699 193 704T226 709Q276 709 276 657V380H308Q359 380 359 331Q359 282 308 282H100Z" />
<glyph unicode="&#xba;" glyph-name="ordmasculine" horiz-adv-x="361" d="M181 408Q110 408 64 450T17 563Q17 633 63 674T181 716Q251 716 298 675T345 563Q345 492 298 450T181 408ZM181 481Q211 481 229 502T247 563Q247 603 229 623T181 644Q151 644 133
624T115 563Q115 522 133 502T181 481Z" />
<glyph unicode="&#xbb;" glyph-name="guillemotright" horiz-adv-x="525" d="M86 80Q64 89 57 112T61 159L111 266L62 371Q50 397 57 419T88 452Q109 461 129 456T162 431L233 315Q264 265 233 217L159 101Q147 82 127 76T86 80ZM308 80Q286 89 279 112T283 159L333
266L284 371Q272 397 279 419T310 452Q331 461 351 456T384 431L455 315Q486 265 455 217L381 101Q369 82 349 76T308 80Z" />
<glyph unicode="&#xbc;" glyph-name="onequarter" horiz-adv-x="923" d="M100 282Q49 282 49 331Q49 380 100 380H157V573L124 556Q99 542 80 549T51 573T47 610T77 643L161 689Q178 699 193 704T226 709Q276 709 276 657V380H308Q359 380 359 331Q359 282 308
282H100ZM360 13Q346 -12 325 -16T284 -9T258 23T265 69L625 692Q640 717 661 721T702 714T728 682T721 636L360 13ZM803 -4Q776 -4 761 9T746 45V66H618Q590 66 574 80T557 118Q557 134 564 147T583 179L729 388Q738 401 755 415T800 429Q860 429 860 367V160H875Q892
160 904 148T917 114Q917 89 905 78T875 66H860V45Q860 22 845 9T803 -4ZM748 160V281L665 160H748Z" />
<glyph unicode="&#xbd;" glyph-name="onehalf" horiz-adv-x="973" d="M100 282Q49 282 49 331Q49 380 100 380H157V573L124 556Q99 542 80 549T51 573T47 610T77 643L161 689Q178 699 193 704T226 709Q276 709 276 657V380H308Q359 380 359 331Q359 282 308 282H100ZM360
13Q346 -12 325 -16T284 -9T258 23T265 69L625 692Q640 717 661 721T702 714T728 682T721 636L360 13ZM689 0Q665 0 650 15T634 54Q634 72 642 86T664 114L755 207Q777 230 786 248T796 285Q796 330 745 330Q731 330 716 326T688 314Q667 303 651 310T627 334T626
369T654 399Q679 413 711 420T775 427Q844 427 884 394T925 303Q925 271 910 241T858 174L783 98H900Q950 98 950 49Q950 0 900 0H689Z" />
<glyph unicode="&#xbe;" glyph-name="threequarters" horiz-adv-x="923" d="M184 277Q106 277 53 306Q32 316 27 334T28 368T51 391T91 387Q109 378 128 375T168 371Q233 371 233 415Q233 448 180 448H137Q114 448 101 460T88 494Q88 517 101 529T137 541H168Q220
541 220 577Q220 594 206 604T161 615Q128 615 98 601Q75 590 59 596T35 619T33 652T60 681Q87 695 119 702T184 709Q255 709 295 679T336 597Q336 564 318 539T271 501Q307 491 327 465T348 399Q348 343 302 310T184 277ZM360 13Q346 -12 325 -16T284 -9T258 23T265
69L625 692Q640 717 661 721T702 714T728 682T721 636L360 13ZM803 -4Q776 -4 761 9T746 45V66H618Q590 66 574 80T557 118Q557 134 564 147T583 179L729 388Q738 401 755 415T800 429Q860 429 860 367V160H875Q892 160 904 148T917 114Q917 89 905 78T875 66H860V45Q860
22 845 9T803 -4ZM748 160V281L665 160H748Z" />
<glyph unicode="&#xbf;" glyph-name="questiondown" horiz-adv-x="468" d="M240 326Q200 326 177 349T154 410Q154 448 177 472T240 496Q280 496 303 472T326 410Q326 373 303 350T240 326ZM232 -191Q166 -191 116 -171T39 -114T11 -30Q11 12 31 49T104 126Q150
161 167 188T190 238Q193 253 204 262T237 272Q285 272 285 223Q285 186 270 151T214 79Q185 53 175 35T164 -5Q164 -31 184 -46T242 -62Q275 -62 306 -55T370 -30Q401 -15 424 -25T457 -57T459 -105T419 -145Q378 -167 330 -179T232 -191Z" />
<glyph unicode="&#xc0;" glyph-name="Agrave" horiz-adv-x="753" d="M91 -9Q49 -9 31 19T32 88L288 649Q304 683 326 698T377 714Q406 714 428 699T465 649L723 88Q742 46 725 19T668 -9Q634 -9 616 7T583 57L541 153H212L171 57Q156 22 139 7T91 -9ZM375 540L264
274H490L377 540H375ZM318 772L228 867Q209 887 214 907T239 941T280 954T319 929L391 823Q402 807 398 792T380 766T350 756T318 772Z" />
<glyph unicode="&#xc1;" glyph-name="Aacute" horiz-adv-x="753" d="M91 -9Q49 -9 31 19T32 88L288 649Q304 683 326 698T377 714Q406 714 428 699T465 649L723 88Q742 46 725 19T668 -9Q634 -9 616 7T583 57L541 153H212L171 57Q156 22 139 7T91 -9ZM375 540L264
274H490L377 540H375ZM437 772Q422 757 405 757T375 766T357 791T364 823L436 929Q452 953 474 954T516 942T540 908T527 867L437 772Z" />
<glyph unicode="&#xc2;" glyph-name="Acircumflex" horiz-adv-x="753" d="M91 -9Q49 -9 31 19T32 88L288 649Q304 683 326 698T377 714Q406 714 428 699T465 649L723 88Q742 46 725 19T668 -9Q634 -9 616 7T583 57L541 153H212L171 57Q156 22 139 7T91 -9ZM375
540L264 274H490L377 540H375ZM300 773Q286 757 269 756T238 764T220 787T227 818L291 907Q323 954 377 954Q430 954 464 907L527 818Q539 802 535 788T518 764T487 756T455 773L377 860L300 773Z" />
<glyph unicode="&#xc3;" glyph-name="Atilde" horiz-adv-x="753" d="M91 -9Q49 -9 31 19T32 88L288 649Q304 683 326 698T377 714Q406 714 428 699T465 649L723 88Q742 46 725 19T668 -9Q634 -9 616 7T583 57L541 153H212L171 57Q156 22 139 7T91 -9ZM375 540L264
274H490L377 540H375ZM185 763Q166 764 156 775T150 806Q163 864 199 895T288 927Q325 927 356 912T415 882T469 867Q492 867 506 877T528 905Q535 920 544 927T569 934Q588 933 598 922T604 891Q591 833 555 802T467 770Q429 770 398 785T340 815T285 830Q262
830 248 820T226 792Q219 777 210 770T185 763Z" />
<glyph unicode="&#xc4;" glyph-name="Adieresis" horiz-adv-x="753" d="M91 -9Q49 -9 31 19T32 88L288 649Q304 683 326 698T377 714Q406 714 428 699T465 649L723 88Q742 46 725 19T668 -9Q634 -9 616 7T583 57L541 153H212L171 57Q156 22 139 7T91 -9ZM375 540L264
274H490L377 540H375ZM476 776Q405 776 405 847Q405 917 476 917Q546 917 546 847Q546 776 476 776ZM279 776Q245 776 227 794T208 847Q208 881 226 899T279 917Q349 917 349 847Q349 776 279 776Z" />
<glyph unicode="&#xc5;" glyph-name="Aring" horiz-adv-x="753" d="M91 -9Q49 -9 31 19T32 88L288 649Q304 683 326 698T377 714Q406 714 428 699T465 649L723 88Q742 46 725 19T668 -9Q634 -9 616 7T583 57L541 153H212L171 57Q156 22 139 7T91 -9ZM375 540L264
274H490L377 540H375ZM377 753Q340 753 311 770T264 815T247 880Q247 916 264 944T310 989T377 1006Q414 1006 443 990T490 945T507 880Q507 844 490 816T444 770T377 753ZM377 818Q403 818 420 835T438 880Q438 907 421 924T377 941Q351 941 334 924T316 880Q316
853 333 836T377 818Z" />
<glyph unicode="&#xc6;" glyph-name="AE" horiz-adv-x="1000" d="M61 -9Q10 -9 -2 21T7 87L370 664Q395 705 445 705H893Q956 705 956 645Q956 584 893 584H562L598 419H872Q934 419 934 358Q934 297 872 297H624L663 121H893Q956 121 956 61Q956 0 893 0H608Q552
0 539 55L518 153H207L139 39Q125 16 108 4T61 -9ZM433 535L278 274H492L435 535H433Z" />
<glyph unicode="&#xc7;" glyph-name="Ccedilla" horiz-adv-x="684" d="M413 -11Q299 -11 218 34T94 160T50 353Q50 463 93 544T218 671T413 716Q463 716 514 703T604 668Q635 650 642 623T638 572T602 538T548 545Q518 563 485 571T418 579Q317 579 266 521T214
353Q214 244 265 185T418 126Q450 126 483 134T548 159Q580 176 604 167T639 135T645 86T611 42Q573 17 520 3T413 -11ZM393 -197Q373 -197 352 -195T313 -186Q295 -181 289 -168T286 -142T300 -122T330 -121Q353 -129 379 -129Q431 -129 431 -103Q431 -83 394
-83Q387 -83 381 -83T366 -85Q352 -89 343 -81Q335 -73 338 -54L349 20H425L415 -34Q418 -34 421 -34Q466 -34 491 -53T517 -108Q517 -148 483 -172T393 -197Z" />
<glyph unicode="&#xc8;" glyph-name="Egrave" horiz-adv-x="605" d="M152 0Q71 0 71 81V624Q71 705 152 705H501Q562 705 562 645Q562 584 501 584H219V419H478Q540 419 540 358Q540 297 478 297H219V121H501Q562 121 562 61Q562 0 501 0H152ZM272 772L182 867Q163
887 168 907T193 941T234 954T273 929L345 823Q356 807 352 792T334 766T304 756T272 772Z" />
<glyph unicode="&#xc9;" glyph-name="Eacute" horiz-adv-x="605" d="M152 0Q71 0 71 81V624Q71 705 152 705H501Q562 705 562 645Q562 584 501 584H219V419H478Q540 419 540 358Q540 297 478 297H219V121H501Q562 121 562 61Q562 0 501 0H152ZM391 772Q376 757
359 757T329 766T311 791T318 823L390 929Q406 953 428 954T470 942T494 908T481 867L391 772Z" />
<glyph unicode="&#xca;" glyph-name="Ecircumflex" horiz-adv-x="605" d="M152 0Q71 0 71 81V624Q71 705 152 705H501Q562 705 562 645Q562 584 501 584H219V419H478Q540 419 540 358Q540 297 478 297H219V121H501Q562 121 562 61Q562 0 501 0H152ZM254 773Q240
757 223 756T192 764T174 787T181 818L245 907Q277 954 331 954Q384 954 418 907L481 818Q493 802 489 788T472 764T441 756T409 773L331 860L254 773Z" />
<glyph unicode="&#xcb;" glyph-name="Edieresis" horiz-adv-x="605" d="M152 0Q71 0 71 81V624Q71 705 152 705H501Q562 705 562 645Q562 584 501 584H219V419H478Q540 419 540 358Q540 297 478 297H219V121H501Q562 121 562 61Q562 0 501 0H152ZM430 776Q359
776 359 847Q359 917 430 917Q500 917 500 847Q500 776 430 776ZM233 776Q199 776 181 794T162 847Q162 881 180 899T233 917Q303 917 303 847Q303 776 233 776Z" />
<glyph unicode="&#xcc;" glyph-name="Igrave" horiz-adv-x="297" d="M149 -9Q111 -9 91 12T71 71V634Q71 714 149 714Q226 714 226 634V71Q226 -9 149 -9ZM89 772L-1 867Q-20 887 -15 907T10 941T51 954T90 929L162 823Q173 807 169 792T151 766T121 756T89 772Z" />
<glyph unicode="&#xcd;" glyph-name="Iacute" horiz-adv-x="297" d="M149 -9Q111 -9 91 12T71 71V634Q71 714 149 714Q226 714 226 634V71Q226 -9 149 -9ZM208 772Q193 757 176 757T146 766T128 791T135 823L207 929Q223 953 245 954T287 942T311 908T298 867L208 772Z" />
<glyph unicode="&#xce;" glyph-name="Icircumflex" horiz-adv-x="297" d="M149 -9Q111 -9 91 12T71 71V634Q71 714 149 714Q226 714 226 634V71Q226 -9 149 -9ZM71 773Q57 757 40 756T9 764T-9 787T-2 818L62 907Q94 954 148 954Q201 954 235 907L298 818Q310
802 306 788T289 764T258 756T226 773L148 860L71 773Z" />
<glyph unicode="&#xcf;" glyph-name="Idieresis" horiz-adv-x="297" d="M149 -9Q111 -9 91 12T71 71V634Q71 714 149 714Q226 714 226 634V71Q226 -9 149 -9ZM247 776Q176 776 176 847Q176 917 247 917Q317 917 317 847Q317 776 247 776ZM50 776Q16 776 -2 794T-21
847Q-21 881 -3 899T50 917Q120 917 120 847Q120 776 50 776Z" />
<glyph unicode="&#xd0;" glyph-name="Eth" horiz-adv-x="774" d="M152 0Q71 0 71 81V624Q71 705 152 705H347Q527 705 626 614T725 353Q725 184 626 92T347 0H152ZM226 127H338Q563 127 563 353Q563 578 338 578H226V127ZM35 301Q-23 301 -23 356Q-23 412 35 412H363Q421
412 421 356Q421 301 363 301H35Z" />
<glyph unicode="&#xd1;" glyph-name="Ntilde" horiz-adv-x="753" d="M143 -9Q71 -9 71 66V636Q71 674 89 694T139 714Q165 714 180 704T214 669L538 256V640Q538 714 610 714Q682 714 682 640V63Q682 30 665 11T619 -9Q591 -9 575 2T539 37L215 450V66Q215 -9
143 -9ZM184 763Q165 764 155 775T149 806Q162 864 198 895T287 927Q324 927 355 912T414 882T468 867Q491 867 505 877T527 905Q534 920 543 927T568 934Q587 933 597 922T603 891Q590 833 554 802T466 770Q428 770 397 785T339 815T284 830Q261 830 247 820T225
792Q218 777 209 770T184 763Z" />
<glyph unicode="&#xd2;" glyph-name="Ograve" horiz-adv-x="796" d="M398 -11Q294 -11 216 34T94 161T50 353Q50 463 93 544T215 671T398 716Q503 716 581 671T703 545T747 354Q747 244 704 162T582 35T398 -11ZM398 121Q486 121 535 182T585 353Q585 463 536
523T398 584Q311 584 262 524T212 353Q212 244 261 183T398 121ZM338 772L248 867Q229 887 234 907T259 941T300 954T339 929L411 823Q422 807 418 792T400 766T370 756T338 772Z" />
<glyph unicode="&#xd3;" glyph-name="Oacute" horiz-adv-x="796" d="M398 -11Q294 -11 216 34T94 161T50 353Q50 463 93 544T215 671T398 716Q503 716 581 671T703 545T747 354Q747 244 704 162T582 35T398 -11ZM398 121Q486 121 535 182T585 353Q585 463 536
523T398 584Q311 584 262 524T212 353Q212 244 261 183T398 121ZM457 772Q442 757 425 757T395 766T377 791T384 823L456 929Q472 953 494 954T536 942T560 908T547 867L457 772Z" />
<glyph unicode="&#xd4;" glyph-name="Ocircumflex" horiz-adv-x="796" d="M398 -11Q294 -11 216 34T94 161T50 353Q50 463 93 544T215 671T398 716Q503 716 581 671T703 545T747 354Q747 244 704 162T582 35T398 -11ZM398 121Q486 121 535 182T585 353Q585 463
536 523T398 584Q311 584 262 524T212 353Q212 244 261 183T398 121ZM320 773Q306 757 289 756T258 764T240 787T247 818L311 907Q343 954 397 954Q450 954 484 907L547 818Q559 802 555 788T538 764T507 756T475 773L397 860L320 773Z" />
<glyph unicode="&#xd5;" glyph-name="Otilde" horiz-adv-x="796" d="M398 -11Q294 -11 216 34T94 161T50 353Q50 463 93 544T215 671T398 716Q503 716 581 671T703 545T747 354Q747 244 704 162T582 35T398 -11ZM398 121Q486 121 535 182T585 353Q585 463 536
523T398 584Q311 584 262 524T212 353Q212 244 261 183T398 121ZM205 763Q186 764 176 775T170 806Q183 864 219 895T308 927Q345 927 376 912T435 882T489 867Q512 867 526 877T548 905Q555 920 564 927T589 934Q608 933 618 922T624 891Q611 833 575 802T487
770Q449 770 418 785T360 815T305 830Q282 830 268 820T246 792Q239 777 230 770T205 763Z" />
<glyph unicode="&#xd6;" glyph-name="Odieresis" horiz-adv-x="796" d="M398 -11Q294 -11 216 34T94 161T50 353Q50 463 93 544T215 671T398 716Q503 716 581 671T703 545T747 354Q747 244 704 162T582 35T398 -11ZM398 121Q486 121 535 182T585 353Q585 463 536
523T398 584Q311 584 262 524T212 353Q212 244 261 183T398 121ZM496 776Q425 776 425 847Q425 917 496 917Q566 917 566 847Q566 776 496 776ZM299 776Q265 776 247 794T228 847Q228 881 246 899T299 917Q369 917 369 847Q369 776 299 776Z" />
<glyph unicode="&#xd7;" glyph-name="multiply" horiz-adv-x="600" d="M169 83Q150 64 130 65T96 81T80 115T97 156L227 286L95 418Q76 437 77 457T93 492T128 508T169 490L300 359L431 490Q450 509 471 508T506 492T522 458T505 418L373 286L503 156Q522 136
521 116T505 81T470 66T431 83L300 213L169 83Z" />
<glyph unicode="&#xd8;" glyph-name="Oslash" horiz-adv-x="796" d="M398 -11Q294 -11 216 34T94 161T50 353Q50 463 93 544T215 671T398 716Q503 716 581 671T703 545T747 354Q747 244 704 162T582 35T398 -11ZM398 121Q486 121 535 182T585 353Q585 463 536
523T398 584Q311 584 262 524T212 353Q212 244 261 183T398 121ZM242 -31Q227 -55 205 -59T162 -52T135 -18T143 31L190 109L236 177L480 596L507 655L554 736Q569 760 591 764T634 757T661 724T653 675L606 596L559 528L316 110L289 51L242 -31Z" />
<glyph unicode="&#xd9;" glyph-name="Ugrave" horiz-adv-x="743" d="M373 -11Q223 -11 145 66T66 295V635Q66 673 86 693T144 714Q221 714 221 635V294Q221 208 260 165T373 121Q524 121 524 294V635Q524 714 601 714Q638 714 657 694T677 635V295Q677 143 600
66T373 -11ZM314 772L224 867Q205 887 210 907T235 941T276 954T315 929L387 823Q398 807 394 792T376 766T346 756T314 772Z" />
<glyph unicode="&#xda;" glyph-name="Uacute" horiz-adv-x="743" d="M373 -11Q223 -11 145 66T66 295V635Q66 673 86 693T144 714Q221 714 221 635V294Q221 208 260 165T373 121Q524 121 524 294V635Q524 714 601 714Q638 714 657 694T677 635V295Q677 143 600
66T373 -11ZM433 772Q418 757 401 757T371 766T353 791T360 823L432 929Q448 953 470 954T512 942T536 908T523 867L433 772Z" />
<glyph unicode="&#xdb;" glyph-name="Ucircumflex" horiz-adv-x="743" d="M373 -11Q223 -11 145 66T66 295V635Q66 673 86 693T144 714Q221 714 221 635V294Q221 208 260 165T373 121Q524 121 524 294V635Q524 714 601 714Q638 714 657 694T677 635V295Q677 143
600 66T373 -11ZM296 773Q282 757 265 756T234 764T216 787T223 818L287 907Q319 954 373 954Q426 954 460 907L523 818Q535 802 531 788T514 764T483 756T451 773L373 860L296 773Z" />
<glyph unicode="&#xdc;" glyph-name="Udieresis" horiz-adv-x="743" d="M373 -11Q223 -11 145 66T66 295V635Q66 673 86 693T144 714Q221 714 221 635V294Q221 208 260 165T373 121Q524 121 524 294V635Q524 714 601 714Q638 714 657 694T677 635V295Q677 143
600 66T373 -11ZM472 776Q401 776 401 847Q401 917 472 917Q542 917 542 847Q542 776 472 776ZM275 776Q241 776 223 794T204 847Q204 881 222 899T275 917Q345 917 345 847Q345 776 275 776Z" />
<glyph unicode="&#xdd;" glyph-name="Yacute" horiz-adv-x="631" d="M316 -9Q278 -9 258 12T238 72V318L34 608Q20 629 22 653T42 696T93 714Q140 714 174 664L318 456L462 664Q481 691 499 702T543 714Q575 714 592 698T611 657T595 606L393 317V72Q393 -9 316
-9ZM375 772Q360 757 343 757T313 766T295 791T302 823L374 929Q390 953 412 954T454 942T478 908T465 867L375 772Z" />
<glyph unicode="&#xde;" glyph-name="Thorn" horiz-adv-x="667" d="M149 -2Q111 -2 91 18T71 77V628Q71 666 92 686T151 707Q187 707 206 688T226 638V593H396Q514 593 578 533T642 367Q642 261 578 201T396 141H226V77Q226 39 207 19T149 -2ZM226 262H369Q493
262 493 367Q493 472 369 472H226V262Z" />
<glyph unicode="&#xdf;" glyph-name="germandbls" horiz-adv-x="676" d="M455 -11Q414 -11 370 -1T290 29Q264 42 259 63T261 105T289 134T332 131Q365 114 399 107T458 100Q488 100 505 112T522 147Q522 167 504 179T434 207Q355 230 323 264T291 348Q291 380
305 409T360 481Q383 504 392 521T401 557Q401 580 384 594T332 608Q272 608 241 572T209 471V68Q209 31 190 11T134 -9Q58 -9 58 68V446Q58 576 129 646T334 716Q433 716 488 677T543 570Q543 536 529 506T480 443Q449 413 439 398T428 367Q428 349 447 336T521
306Q594 285 626 248T658 157Q658 80 603 35T455 -11Z" />
<glyph unicode="&#xe0;" glyph-name="agrave" horiz-adv-x="557" d="M224 -11Q169 -11 127 10T61 67T36 148Q36 201 64 233T155 278T322 292H358V309Q358 353 338 371T270 390Q243 390 211 384T142 362Q114 350 95 360T70 392T73 436T111 468Q158 486 199 493T276
501Q390 501 446 450T502 290V68Q502 -9 432 -9Q361 -9 361 68V74Q346 35 311 12T224 -11ZM258 90Q300 90 329 119T358 194V214H323Q246 214 214 201T182 154Q182 126 201 108T258 90ZM229 562L135 692Q118 716 126 737T155 771T200 779T236 748L307 607Q316 589
310 574T289 550T257 544T229 562Z" />
<glyph unicode="&#xe1;" glyph-name="aacute" horiz-adv-x="557" d="M224 -11Q169 -11 127 10T61 67T36 148Q36 201 64 233T155 278T322 292H358V309Q358 353 338 371T270 390Q243 390 211 384T142 362Q114 350 95 360T70 392T73 436T111 468Q158 486 199 493T276
501Q390 501 446 450T502 290V68Q502 -9 432 -9Q361 -9 361 68V74Q346 35 311 12T224 -11ZM258 90Q300 90 329 119T358 194V214H323Q246 214 214 201T182 154Q182 126 201 108T258 90ZM338 562Q326 546 310 544T278 549T257 573T259 607L330 748Q341 770 358 776T393
777T425 759T442 729T431 692L338 562Z" />
<glyph unicode="&#xe2;" glyph-name="acircumflex" horiz-adv-x="557" d="M224 -11Q169 -11 127 10T61 67T36 148Q36 201 64 233T155 278T322 292H358V309Q358 353 338 371T270 390Q243 390 211 384T142 362Q114 350 95 360T70 392T73 436T111 468Q158 486 199
493T276 501Q390 501 446 450T502 290V68Q502 -9 432 -9Q361 -9 361 68V74Q346 35 311 12T224 -11ZM258 90Q300 90 329 119T358 194V214H323Q246 214 214 201T182 154Q182 126 201 108T258 90ZM431 606Q441 588 436 573T416 549T386 543T359 563L283 678L207 563Q196
546 180 544T150 549T131 572T135 606L200 725Q229 779 283 779Q338 779 367 725L431 606Z" />
<glyph unicode="&#xe3;" glyph-name="atilde" horiz-adv-x="557" d="M224 -11Q169 -11 127 10T61 67T36 148Q36 201 64 233T155 278T322 292H358V309Q358 353 338 371T270 390Q243 390 211 384T142 362Q114 350 95 360T70 392T73 436T111 468Q158 486 199 493T276
501Q390 501 446 450T502 290V68Q502 -9 432 -9Q361 -9 361 68V74Q346 35 311 12T224 -11ZM258 90Q300 90 329 119T358 194V214H323Q246 214 214 201T182 154Q182 126 201 108T258 90ZM117 578Q99 579 91 589T85 621Q90 646 104 674T143 722T208 742Q233 742 252
733T288 712T320 691T354 682Q373 682 387 693T407 723Q413 736 422 743T449 749Q488 748 481 706Q476 680 462 652T422 605T358 585Q333 585 314 594T278 615T246 636T212 645Q193 645 179 634T159 604Q155 593 146 585T117 578Z" />
<glyph unicode="&#xe4;" glyph-name="adieresis" horiz-adv-x="557" d="M224 -11Q169 -11 127 10T61 67T36 148Q36 201 64 233T155 278T322 292H358V309Q358 353 338 371T270 390Q243 390 211 384T142 362Q114 350 95 360T70 392T73 436T111 468Q158 486 199 493T276
501Q390 501 446 450T502 290V68Q502 -9 432 -9Q361 -9 361 68V74Q346 35 311 12T224 -11ZM258 90Q300 90 329 119T358 194V214H323Q246 214 214 201T182 154Q182 126 201 108T258 90ZM382 585Q311 585 311 656Q311 726 382 726Q452 726 452 656Q452 585 382 585ZM185
585Q151 585 133 603T114 656Q114 690 132 708T185 726Q255 726 255 656Q255 585 185 585Z" />
<glyph unicode="&#xe5;" glyph-name="aring" horiz-adv-x="557" d="M224 -11Q169 -11 127 10T61 67T36 148Q36 201 64 233T155 278T322 292H358V309Q358 353 338 371T270 390Q243 390 211 384T142 362Q114 350 95 360T70 392T73 436T111 468Q158 486 199 493T276
501Q390 501 446 450T502 290V68Q502 -9 432 -9Q361 -9 361 68V74Q346 35 311 12T224 -11ZM258 90Q300 90 329 119T358 194V214H323Q246 214 214 201T182 154Q182 126 201 108T258 90ZM283 545Q246 545 217 562T170 607T153 672Q153 708 170 736T216 781T283 798Q320
798 349 782T396 737T413 672Q413 636 396 608T350 562T283 545ZM283 610Q309 610 326 627T344 672Q344 698 327 715T283 733Q257 733 240 716T222 672Q222 645 239 628T283 610Z" />
<glyph unicode="&#xe6;" glyph-name="ae" horiz-adv-x="868" d="M237 -11Q175 -11 131 10T61 67T36 148Q36 201 64 233T156 278T326 292H357V310Q357 352 337 371T270 390Q243 390 212 384T143 362Q115 350 96 360T71 392T74 436T112 468Q158 486 200 493T276
501Q334 501 377 485T445 434Q475 468 517 484T606 501Q676 501 728 471T809 386T838 255V250Q838 214 791 214H503Q510 156 542 129T637 102Q661 102 691 107T750 127Q779 141 799 133T826 104T826 63T793 27Q758 9 716 -1T633 -11Q560 -11 504 14T417 91Q394
42 348 16T237 -11ZM612 401Q516 401 503 292H713Q707 401 612 401ZM258 90Q302 90 329 120T357 197V214H323Q246 214 214 201T182 154Q182 126 201 108T258 90Z" />
<glyph unicode="&#xe7;" glyph-name="ccedilla" horiz-adv-x="478" d="M297 -11Q217 -11 158 20T66 110T34 247Q34 326 66 383T157 470T297 501Q328 501 363 494T432 468Q457 456 463 435T461 392T434 362T390 365Q350 386 312 386Q253 386 221 350T188 246Q188
180 220 143T312 105Q330 105 350 109T390 125Q415 138 433 128T459 98T460 55T430 21Q396 4 362 -3T297 -11ZM286 -197Q266 -197 245 -195T206 -186Q188 -181 182 -168T179 -142T193 -122T223 -121Q246 -129 272 -129Q324 -129 324 -103Q324 -83 287 -83Q280 -83
274 -83T259 -85Q245 -89 236 -81Q228 -73 231 -54L242 20H318L308 -34Q311 -34 314 -34Q359 -34 384 -53T410 -108Q410 -148 376 -172T286 -197Z" />
<glyph unicode="&#xe8;" glyph-name="egrave" horiz-adv-x="549" d="M313 -11Q226 -11 164 20T68 109T34 245Q34 321 66 378T155 468T286 501Q393 501 456 434T519 251Q519 213 472 213H178Q186 155 220 129T316 102Q340 102 370 107T429 127Q458 141 478 133T505
104T506 63T472 27Q437 8 395 -1T313 -11ZM292 401Q244 401 215 372T178 291H394Q388 401 292 401ZM233 562L139 692Q122 716 130 737T159 771T204 779T240 748L311 607Q320 589 314 574T293 550T261 544T233 562Z" />
<glyph unicode="&#xe9;" glyph-name="eacute" horiz-adv-x="549" d="M313 -11Q226 -11 164 20T68 109T34 245Q34 321 66 378T155 468T286 501Q393 501 456 434T519 251Q519 213 472 213H178Q186 155 220 129T316 102Q340 102 370 107T429 127Q458 141 478 133T505
104T506 63T472 27Q437 8 395 -1T313 -11ZM292 401Q244 401 215 372T178 291H394Q388 401 292 401ZM342 562Q330 546 314 544T282 549T261 573T263 607L334 748Q345 770 362 776T397 777T429 759T446 729T435 692L342 562Z" />
<glyph unicode="&#xea;" glyph-name="ecircumflex" horiz-adv-x="549" d="M313 -11Q226 -11 164 20T68 109T34 245Q34 321 66 378T155 468T286 501Q393 501 456 434T519 251Q519 213 472 213H178Q186 155 220 129T316 102Q340 102 370 107T429 127Q458 141 478
133T505 104T506 63T472 27Q437 8 395 -1T313 -11ZM292 401Q244 401 215 372T178 291H394Q388 401 292 401ZM435 606Q445 588 440 573T420 549T390 543T363 563L287 678L211 563Q200 546 184 544T154 549T135 572T139 606L204 725Q233 779 287 779Q342 779 371
725L435 606Z" />
<glyph unicode="&#xeb;" glyph-name="edieresis" horiz-adv-x="549" d="M313 -11Q226 -11 164 20T68 109T34 245Q34 321 66 378T155 468T286 501Q393 501 456 434T519 251Q519 213 472 213H178Q186 155 220 129T316 102Q340 102 370 107T429 127Q458 141 478 133T505
104T506 63T472 27Q437 8 395 -1T313 -11ZM292 401Q244 401 215 372T178 291H394Q388 401 292 401ZM386 585Q315 585 315 656Q315 726 386 726Q456 726 456 656Q456 585 386 585ZM189 585Q155 585 137 603T118 656Q118 690 136 708T189 726Q259 726 259 656Q259
585 189 585Z" />
<glyph unicode="&#xec;" glyph-name="igrave" horiz-adv-x="268" d="M134 -8Q97 -8 78 13T58 74V416Q58 499 134 499Q170 499 189 478T209 416V74Q209 35 190 14T134 -8ZM80 562L-14 692Q-31 716 -23 737T6 771T51 779T87 748L158 607Q167 589 161 574T140 550T108
544T80 562Z" />
<glyph unicode="&#xed;" glyph-name="iacute" horiz-adv-x="268" d="M134 -8Q97 -8 78 13T58 74V416Q58 499 134 499Q170 499 189 478T209 416V74Q209 35 190 14T134 -8ZM189 562Q177 546 161 544T129 549T108 573T110 607L181 748Q192 770 209 776T244 777T276
759T293 729T282 692L189 562Z" />
<glyph unicode="&#xee;" glyph-name="icircumflex" horiz-adv-x="268" d="M134 -8Q97 -8 78 13T58 74V416Q58 499 134 499Q170 499 189 478T209 416V74Q209 35 190 14T134 -8ZM282 606Q292 588 287 573T267 549T237 543T210 563L134 678L58 563Q47 546 31 544T1
549T-18 572T-14 606L51 725Q80 779 134 779Q189 779 218 725L282 606Z" />
<glyph unicode="&#xef;" glyph-name="idieresis" horiz-adv-x="268" d="M134 -8Q97 -8 78 13T58 74V416Q58 499 134 499Q170 499 189 478T209 416V74Q209 35 190 14T134 -8ZM233 585Q162 585 162 656Q162 726 233 726Q303 726 303 656Q303 585 233 585ZM36 585Q2
585 -16 603T-35 656Q-35 690 -17 708T36 726Q106 726 106 656Q106 585 36 585Z" />
<glyph unicode="&#xf0;" glyph-name="eth" horiz-adv-x="593" d="M288 -11Q213 -11 156 18T66 100T34 222Q34 288 64 339T149 419T274 448Q316 448 350 437T409 399Q395 446 367 482T304 545L171 484Q148 473 131 479T107 500T106 531T137 559L214 594Q202 599
190 603T164 612Q136 619 126 637T121 675T146 704T195 707Q236 698 271 684T339 652L446 702Q469 712 486 706T510 686T512 655T483 628L417 598Q487 537 524 456T561 290Q561 150 490 70T288 -11ZM294 104Q345 104 373 136T402 221Q402 274 374 305T293 337Q243
337 215 306T186 221Q186 166 214 135T294 104Z" />
<glyph unicode="&#xf1;" glyph-name="ntilde" horiz-adv-x="595" d="M134 -9Q58 -9 58 68V423Q58 499 132 499Q206 499 206 423V419Q231 459 273 480T367 501Q454 501 497 451T540 295V68Q540 -9 464 -9Q428 -9 409 11T389 68V288Q389 339 370 361T314 384Q266
384 238 354T209 274V68Q209 -9 134 -9ZM133 578Q115 579 107 589T101 621Q106 646 120 674T159 722T224 742Q249 742 268 733T304 712T336 691T370 682Q389 682 403 693T423 723Q429 736 438 743T465 749Q504 748 497 706Q492 680 478 652T438 605T374 585Q349
585 330 594T294 615T262 636T228 645Q209 645 195 634T175 604Q171 593 162 585T133 578Z" />
<glyph unicode="&#xf2;" glyph-name="ograve" horiz-adv-x="589" d="M294 -11Q215 -11 157 20T66 109T34 246Q34 324 66 381T156 470T294 501Q373 501 431 470T522 382T555 246Q555 167 523 110T432 21T294 -11ZM294 102Q342 102 372 137T403 246Q403 319 373
353T294 388Q246 388 216 354T186 246Q186 172 216 137T294 102ZM240 562L146 692Q129 716 137 737T166 771T211 779T247 748L318 607Q327 589 321 574T300 550T268 544T240 562Z" />
<glyph unicode="&#xf3;" glyph-name="oacute" horiz-adv-x="589" d="M294 -11Q215 -11 157 20T66 109T34 246Q34 324 66 381T156 470T294 501Q373 501 431 470T522 382T555 246Q555 167 523 110T432 21T294 -11ZM294 102Q342 102 372 137T403 246Q403 319 373
353T294 388Q246 388 216 354T186 246Q186 172 216 137T294 102ZM349 562Q337 546 321 544T289 549T268 573T270 607L341 748Q352 770 369 776T404 777T436 759T453 729T442 692L349 562Z" />
<glyph unicode="&#xf4;" glyph-name="ocircumflex" horiz-adv-x="589" d="M294 -11Q215 -11 157 20T66 109T34 246Q34 324 66 381T156 470T294 501Q373 501 431 470T522 382T555 246Q555 167 523 110T432 21T294 -11ZM294 102Q342 102 372 137T403 246Q403 319
373 353T294 388Q246 388 216 354T186 246Q186 172 216 137T294 102ZM442 606Q452 588 447 573T427 549T397 543T370 563L294 678L218 563Q207 546 191 544T161 549T142 572T146 606L211 725Q240 779 294 779Q349 779 378 725L442 606Z" />
<glyph unicode="&#xf5;" glyph-name="otilde" horiz-adv-x="589" d="M294 -11Q215 -11 157 20T66 109T34 246Q34 324 66 381T156 470T294 501Q373 501 431 470T522 382T555 246Q555 167 523 110T432 21T294 -11ZM294 102Q342 102 372 137T403 246Q403 319 373
353T294 388Q246 388 216 354T186 246Q186 172 216 137T294 102ZM128 578Q110 579 102 589T96 621Q101 646 115 674T154 722T219 742Q244 742 263 733T299 712T331 691T365 682Q384 682 398 693T418 723Q424 736 433 743T460 749Q499 748 492 706Q487 680 473 652T433
605T369 585Q344 585 325 594T289 615T257 636T223 645Q204 645 190 634T170 604Q166 593 157 585T128 578Z" />
<glyph unicode="&#xf6;" glyph-name="odieresis" horiz-adv-x="589" d="M294 -11Q215 -11 157 20T66 109T34 246Q34 324 66 381T156 470T294 501Q373 501 431 470T522 382T555 246Q555 167 523 110T432 21T294 -11ZM294 102Q342 102 372 137T403 246Q403 319 373
353T294 388Q246 388 216 354T186 246Q186 172 216 137T294 102ZM393 585Q322 585 322 656Q322 726 393 726Q463 726 463 656Q463 585 393 585ZM196 585Q162 585 144 603T125 656Q125 690 143 708T196 726Q266 726 266 656Q266 585 196 585Z" />
<glyph unicode="&#xf7;" glyph-name="divide" horiz-adv-x="600" d="M294 421Q233 421 233 483Q233 544 294 544Q355 544 355 483Q355 421 294 421ZM100 235Q47 235 47 287Q47 339 100 339H500Q553 339 553 287Q553 235 500 235H100ZM294 30Q233 30 233 91Q233
153 294 153Q355 153 355 91Q355 30 294 30Z" />
<glyph unicode="&#xf8;" glyph-name="oslash" horiz-adv-x="589" d="M179 -36Q169 -54 152 -57T120 -52T100 -27T106 10L125 41Q81 74 58 126T34 246Q34 324 66 381T156 470T294 501Q344 501 387 488L410 527Q421 545 437 547T469 542T489 517T484 480L465 448Q508
415 531 364T555 246Q555 167 523 110T432 21T294 -11Q245 -11 202 2L179 -36ZM178 246Q178 195 194 160L329 389Q313 393 294 393Q242 393 210 357T178 246ZM295 98Q346 98 378 134T410 246Q410 295 395 329L261 102Q277 98 295 98Z" />
<glyph unicode="&#xf9;" glyph-name="ugrave" horiz-adv-x="590" d="M239 -11Q145 -11 101 41T56 197V423Q56 499 131 499Q207 499 207 423V193Q207 106 282 106Q325 106 352 136T380 217V423Q380 499 455 499Q531 499 531 423V68Q531 -9 458 -9Q422 -9 403 11T384
67Q335 -11 239 -11ZM240 563L146 693Q129 717 137 738T166 772T211 780T247 749L318 608Q327 590 321 575T300 551T268 545T240 563Z" />
<glyph unicode="&#xfa;" glyph-name="uacute" horiz-adv-x="590" d="M239 -11Q145 -11 101 41T56 197V423Q56 499 131 499Q207 499 207 423V193Q207 106 282 106Q325 106 352 136T380 217V423Q380 499 455 499Q531 499 531 423V68Q531 -9 458 -9Q422 -9 403 11T384
67Q335 -11 239 -11ZM349 563Q337 547 321 545T289 550T268 574T270 608L341 749Q352 771 369 777T404 778T436 760T453 730T442 693L349 563Z" />
<glyph unicode="&#xfb;" glyph-name="ucircumflex" horiz-adv-x="590" d="M239 -11Q145 -11 101 41T56 197V423Q56 499 131 499Q207 499 207 423V193Q207 106 282 106Q325 106 352 136T380 217V423Q380 499 455 499Q531 499 531 423V68Q531 -9 458 -9Q422 -9 403
11T384 67Q335 -11 239 -11ZM442 607Q452 589 447 574T427 550T397 544T370 564L294 679L218 564Q207 547 191 545T161 550T142 573T146 607L211 726Q240 780 294 780Q349 780 378 726L442 607Z" />
<glyph unicode="&#xfc;" glyph-name="udieresis" horiz-adv-x="590" d="M239 -11Q145 -11 101 41T56 197V423Q56 499 131 499Q207 499 207 423V193Q207 106 282 106Q325 106 352 136T380 217V423Q380 499 455 499Q531 499 531 423V68Q531 -9 458 -9Q422 -9 403
11T384 67Q335 -11 239 -11ZM393 586Q322 586 322 657Q322 727 393 727Q463 727 463 657Q463 586 393 586ZM196 586Q162 586 144 604T125 657Q125 691 143 709T196 727Q266 727 266 657Q266 586 196 586Z" />
<glyph unicode="&#xfd;" glyph-name="yacute" horiz-adv-x="533" d="M192 -189Q152 -189 136 -160T137 -91L190 27L27 401Q11 440 27 469T94 499Q121 499 137 487T168 439L270 179L376 440Q390 474 407 486T455 499Q493 499 508 470T507 402L272 -131Q257 -165
239 -177T192 -189ZM322 562Q310 546 294 544T262 549T241 573T243 607L314 748Q325 770 342 776T377 777T409 759T426 729T415 692L322 562Z" />
<glyph unicode="&#xfe;" glyph-name="thorn" horiz-adv-x="610" d="M134 -189Q58 -189 58 -112V637Q58 675 78 694T134 714Q209 714 209 637V424Q231 460 271 480T361 501Q425 501 473 470T549 382T576 246Q576 167 549 110T474 21T361 -11Q312 -11 272 10T209
66V-112Q209 -189 134 -189ZM316 102Q364 102 394 137T424 246Q424 319 394 353T316 388Q267 388 237 354T207 246Q207 172 237 137T316 102Z" />
<glyph unicode="&#xff;" glyph-name="ydieresis" horiz-adv-x="533" d="M192 -189Q152 -189 136 -160T137 -91L190 27L27 401Q11 440 27 469T94 499Q121 499 137 487T168 439L270 179L376 440Q390 474 407 486T455 499Q493 499 508 470T507 402L272 -131Q257 -165
239 -177T192 -189ZM366 585Q295 585 295 656Q295 726 366 726Q436 726 436 656Q436 585 366 585ZM169 585Q135 585 117 603T98 656Q98 690 116 708T169 726Q239 726 239 656Q239 585 169 585Z" />
<glyph unicode="&#x2013;" glyph-name="endash" horiz-adv-x="500" d="M37 224Q17 224 4 237T-9 268Q-9 287 4 299T37 312H463Q483 312 496 300T509 268Q509 250 496 237T463 224H37Z" />
<glyph unicode="&#x2014;" glyph-name="emdash" horiz-adv-x="1000" d="M37 224Q17 224 4 237T-9 268Q-9 287 4 299T37 312H963Q983 312 996 300T1009 268Q1009 250 996 237T963 224H37Z" />
<glyph unicode="&#x2018;" glyph-name="quoteleft" horiz-adv-x="260" d="M110 683Q125 701 141 703T170 697T183 672T170 636Q157 621 149 605T137 574Q173 571 195 549T217 489Q217 452 194 429T131 405Q90 405 67 432T44 509Q44 548 56 590T110 683Z" />
<glyph unicode="&#x2019;" glyph-name="quoteright" horiz-adv-x="260" d="M151 432Q136 413 119 411T90 418T77 443T91 479Q104 494 111 510T123 541Q87 544 66 566T44 625Q44 663 67 686T130 710Q170 710 193 683T217 606Q217 567 205 525T151 432Z" />
<glyph unicode="&#x201a;" glyph-name="quotesinglbase" horiz-adv-x="260" d="M151 -114Q136 -132 119 -134T90 -128T77 -103T91 -67Q104 -51 111 -36T123 -5Q87 -2 66 21T44 81Q44 118 67 141T130 165Q170 165 193 138T217 60Q217 21 205 -21T151 -114Z" />
<glyph unicode="&#x201c;" glyph-name="quotedblleft" horiz-adv-x="472" d="M110 683Q125 701 141 703T170 697T183 672T170 636Q157 621 149 605T137 574Q173 571 195 549T217 489Q217 452 194 429T131 405Q90 405 67 432T44 509Q44 548 56 590T110 683ZM322
683Q337 701 353 703T382 697T395 672T382 636Q369 621 361 605T349 574Q385 571 407 549T429 489Q429 452 406 429T343 405Q302 405 279 432T256 509Q256 548 268 590T322 683Z" />
<glyph unicode="&#x201d;" glyph-name="quotedblright" horiz-adv-x="472" d="M151 432Q136 413 119 411T90 418T77 443T91 479Q104 494 111 510T123 541Q87 544 66 566T44 625Q44 663 67 686T130 710Q170 710 193 683T217 606Q217 567 205 525T151 432ZM363 432Q348
413 331 411T302 418T289 443T303 479Q316 494 323 510T335 541Q299 544 278 566T256 625Q256 663 279 686T342 710Q382 710 405 683T429 606Q429 567 417 525T363 432Z" />
<glyph unicode="&#x201e;" glyph-name="quotedblbase" horiz-adv-x="472" d="M151 -114Q136 -132 119 -134T90 -128T77 -103T91 -67Q104 -51 111 -36T123 -5Q87 -2 66 21T44 81Q44 118 67 141T130 165Q170 165 193 138T217 60Q217 21 205 -21T151 -114ZM363 -114Q348
-132 331 -134T302 -128T289 -103T303 -67Q316 -51 323 -36T335 -5Q299 -2 278 21T256 81Q256 118 279 141T342 165Q382 165 405 138T429 60Q429 21 417 -21T363 -114Z" />
<glyph unicode="&#x2022;" glyph-name="bullet" horiz-adv-x="524" d="M262 88Q213 88 172 111T106 175T81 265Q81 311 104 351T169 417T262 443Q310 443 351 420T418 357T443 265Q443 216 419 176T353 112T262 88Z" />
<glyph unicode="&#x2039;" glyph-name="guilsinglleft" horiz-adv-x="303" d="M217 80Q196 70 177 76T144 101L70 217Q39 265 70 315L142 431Q155 450 175 455T216 452Q238 442 246 420T242 371L193 266L242 159Q253 135 247 112T217 80Z" />
<glyph unicode="&#x203a;" glyph-name="guilsinglright" horiz-adv-x="303" d="M86 80Q64 89 57 112T61 159L111 266L62 371Q50 397 57 419T88 452Q109 461 129 456T162 431L233 315Q264 265 233 217L159 101Q147 82 127 76T86 80Z" />
</font>
</defs>
</svg>
