<?xml version="1.0" standalone="no"?>
<!DOCTYPE svg PUBLIC "-//W3C//DTD SVG 1.1//EN" "http://www.w3.org/Graphics/SVG/1.1/DTD/svg11.dtd">
<svg xmlns="http://www.w3.org/2000/svg">
<defs >
<font id="Nunito" horiz-adv-x="581" ><font-face
    font-family="Nunito"
    units-per-em="1000"
    panose-1="0 0 0 0 0 0 0 0 0 0"
    ascent="1011"
    descent="-353"
    alphabetic="0" />
<glyph unicode=" " glyph-name="space" horiz-adv-x="258" />
<glyph unicode="!" glyph-name="exclam" horiz-adv-x="228" d="M107 181Q80 181 83 212L134 664Q139 712 186 712Q210 712 221 697T227 655L136 207Q133 196 126 189T107 181ZM85 -4Q60 -4 45 11T30 51Q30 75 45 90T85 106Q110 106 125 91T140 51Q140 27 125 12T85 -4Z" />
<glyph unicode="&quot;" glyph-name="quotedbl" horiz-adv-x="392" d="M142 421Q129 421 121 428T115 455L133 671Q134 688 146 700T180 712Q201 712 214 699T221 661L173 451Q170 435 162 428T142 421ZM313 421Q300 421 292 428T286 455L304 671Q305 688 317
700T351 712Q372 712 385 699T392 661L344 451Q341 435 333 428T313 421Z" />
<glyph unicode="#" glyph-name="numbersign" horiz-adv-x="600" d="M82 -7Q65 -7 60 4T62 36L114 182H61Q50 182 39 186T27 208Q27 241 64 241H135L216 472H127Q117 472 106 477T94 499Q94 531 130 531H237L290 682Q301 712 329 712Q345 712 350 701T348 669L300
531H459L512 682Q522 712 552 712Q568 712 573 701T571 669L523 531H575Q586 531 597 527T609 505Q609 472 572 472H502L420 241H509Q520 241 531 237T543 215Q543 182 506 182H400L342 23Q331 -7 303 -7Q287 -7 282 4T284 36L336 182H177L121 23Q110 -7 82 -7ZM197
241H357L439 472H279L197 241Z" />
<glyph unicode="$" glyph-name="dollar" horiz-adv-x="600" d="M255 -122Q238 -122 230 -112T224 -81L237 -4Q120 6 45 63Q30 73 28 88T32 116T53 133T85 125Q125 97 174 83T289 68Q337 68 375 81T436 122T459 188Q459 233 431 259T331 305L242 329Q172 347 131
388T89 507Q89 572 124 617T218 686T349 710L362 793Q367 822 399 822Q413 822 423 813T429 784L417 704Q460 697 500 678T572 630Q583 621 584 608T578 583T558 568T526 578Q453 637 351 637Q269 637 221 605T172 512Q172 462 196 437T272 399L361 376Q455 350
498 307T542 196Q542 134 510 91T423 24T305 -4L291 -93Q286 -122 255 -122Z" />
<glyph unicode="%" glyph-name="percent" horiz-adv-x="930" d="M263 -2Q249 -22 231 -20T204 -2T211 34L699 703Q714 723 732 721T758 704T753 668L263 -2ZM239 282Q170 282 131 325T92 443Q92 517 115 578T183 676T294 713Q364 713 403 670T442 550Q442 476
419 415T351 318T239 282ZM239 339Q283 339 312 367T356 443T372 547Q374 604 352 629T294 655Q251 655 222 627T178 551T161 447Q159 390 181 365T239 339ZM670 -9Q600 -9 561 34T522 153Q522 227 545 288T614 385T724 422Q794 422 833 379T872 260Q872 185 849
124T781 27T670 -9ZM669 49Q713 49 742 77T786 153T803 257Q804 314 782 339T725 365Q681 365 652 337T608 261T591 157Q590 100 612 75T669 49Z" />
<glyph unicode="&amp;" glyph-name="ampersand" horiz-adv-x="693" d="M253 -9Q159 -9 104 33T49 148Q49 203 76 247T145 326T232 385L250 395Q219 436 206 471T193 538Q193 590 217 630T284 692T384 714Q449 714 488 678T527 585Q527 539 505 503T444 438T356
380L492 196Q518 234 536 281T569 388Q578 420 608 420Q626 420 635 410T639 381Q621 306 596 250T535 143L608 47Q624 27 614 10T579 -7Q570 -7 561 -4T545 7L485 88Q440 42 382 17T253 -9ZM380 651Q330 651 300 621T270 545Q270 517 280 493T318 429Q393 472
425 505T457 581Q457 613 436 632T380 651ZM260 58Q318 58 363 78T445 138L289 345L274 336Q212 301 171 260T130 158Q130 58 260 58Z" />
<glyph unicode="&apos;" glyph-name="quotesingle" horiz-adv-x="221" d="M142 421Q129 421 121 428T115 455L133 671Q134 688 146 700T180 712Q201 712 214 699T221 661L173 451Q170 435 162 428T142 421Z" />
<glyph unicode="(" glyph-name="parenleft" horiz-adv-x="317" d="M141 -157Q120 -86 110 -17T99 119Q99 228 121 331T184 527T276 694Q290 712 308 711T337 696T336 659Q265 532 225 395T185 99Q185 42 191 -17T209 -138Q213 -164 199 -176T166 -184T141 -157Z" />
<glyph unicode=")" glyph-name="parenright" horiz-adv-x="317" d="M47 -166Q34 -185 15 -184T-14 -169T-12 -133Q59 -6 98 131T138 427Q138 484 132 543T114 664Q110 690 125 702T158 710T182 683Q202 612 213 543T224 407Q224 298 202 196T140 1T47 -166Z" />
<glyph unicode="*" glyph-name="asterisk" horiz-adv-x="450" d="M174 368Q148 384 167 416L226 509L117 505Q99 505 89 512T78 535Q78 549 88 556T117 563L227 559L168 654Q147 686 174 702Q186 709 198 703T219 681L271 581L323 681Q331 697 343 703T369 702Q394
685 374 653L315 559L425 563Q443 564 453 557T464 535Q464 520 454 513T425 505L316 509L374 416Q394 383 369 369Q356 360 344 366T323 388L271 488L218 388Q210 372 198 366T174 368Z" />
<glyph unicode="+" glyph-name="plus" horiz-adv-x="600" d="M268 33Q234 33 241 72L270 256H89Q56 256 56 281Q56 318 93 318H280L308 503Q314 535 344 535Q378 535 372 497L344 318H524Q558 318 558 292Q558 256 521 256H334L304 66Q299 33 268 33Z" />
<glyph unicode="," glyph-name="comma" horiz-adv-x="228" d="M74 -97Q59 -111 45 -108T27 -91T38 -62Q68 -32 77 -3Q55 0 43 15T30 51Q30 75 44 90T84 106Q109 106 122 90T136 44Q136 -36 74 -97Z" />
<glyph unicode="-" glyph-name="hyphen" horiz-adv-x="424" d="M104 233Q69 233 69 259Q69 276 78 288T107 300H329Q364 300 364 273Q364 256 354 245T326 233H104Z" />
<glyph unicode="." glyph-name="period" horiz-adv-x="228" d="M85 -4Q60 -4 45 11T30 51Q30 75 45 90T85 106Q110 106 125 91T140 51Q140 27 125 12T85 -4Z" />
<glyph unicode="/" glyph-name="slash" horiz-adv-x="283" d="M10 -37Q2 -53 -11 -56T-35 -54T-52 -36T-49 -9L303 726Q311 742 323 745T348 744T365 726T363 697L10 -37Z" />
<glyph unicode="0" glyph-name="zero" horiz-adv-x="600" d="M289 -9Q180 -9 124 57T67 250Q67 394 101 498T198 658T347 714Q456 714 512 648T568 456Q568 311 534 207T437 47T289 -9ZM293 62Q381 62 433 167T486 474Q487 643 343 643Q254 643 202 538T149 231Q149
62 293 62Z" />
<glyph unicode="1" glyph-name="one" horiz-adv-x="600" d="M123 0Q84 0 84 31Q84 49 96 59T127 70H258L342 604L239 541Q221 531 208 535T187 551T183 577T205 602L359 697Q384 712 405 712Q422 712 430 701T435 670L340 70H454Q492 70 492 40Q492 22 481 11T449 0H123Z" />
<glyph unicode="2" glyph-name="two" horiz-adv-x="600" d="M99 0Q80 0 69 8T58 34Q58 54 86 81L341 319Q399 372 436 425T473 538Q473 587 440 614T347 641Q307 641 266 627T181 582Q164 570 151 574T131 589T126 615T144 641Q188 675 244 694T360 714Q450 714
503 668T556 548Q556 492 534 444T475 353T390 267L175 70H475Q513 70 513 41Q513 0 470 0H99Z" />
<glyph unicode="3" glyph-name="three" horiz-adv-x="600" d="M278 -9Q223 -9 165 5T58 57Q43 68 41 82T45 109T66 126T95 119Q139 86 184 75T278 64Q345 64 390 102T436 208Q436 260 401 291T300 322H236Q197 322 197 353Q197 371 209 382T240 393H306Q352 393
389 410T448 458T471 534Q471 583 437 612T346 641Q303 641 258 627T174 584Q158 573 145 576T125 590T120 616T139 642Q185 678 242 696T354 714Q417 714 461 691T528 630T552 543Q553 476 513 427T407 359Q461 341 489 300T518 204Q518 142 487 94T401 19T278
-9Z" />
<glyph unicode="4" glyph-name="four" horiz-adv-x="600" d="M380 -7Q360 -7 351 5T345 37L363 151H82Q60 151 49 160T38 184Q38 197 44 208T63 235L445 685Q465 710 492 710Q510 710 519 698T525 663L455 221H528Q563 221 563 193Q563 174 553 163T521 151H445L426
33Q420 -7 380 -7ZM373 221L429 574L131 221H373Z" />
<glyph unicode="5" glyph-name="five" horiz-adv-x="600" d="M287 -9Q236 -9 182 5T81 58Q66 69 64 84T69 111T90 126T118 119Q161 86 201 75T287 64Q337 64 377 86T440 146T463 234Q463 295 428 332T331 370Q287 370 251 353T182 302Q172 293 163 288T141 283Q125
283 116 292T109 321L165 668Q171 705 208 705H543Q581 705 581 675Q581 635 538 635H241L201 385Q232 412 272 426T354 441Q406 441 449 419T519 352T545 241Q545 166 510 110T416 22T287 -9Z" />
<glyph unicode="6" glyph-name="six" horiz-adv-x="600" d="M306 -9Q200 -9 138 61T75 252Q75 349 96 433T158 580T259 678T400 714Q450 714 498 695T583 639Q596 627 596 613T589 587T568 573T539 584Q480 641 394 641Q326 641 275 602T193 488T155 312Q179 374
234 408T352 442Q408 442 452 416T520 344T545 244Q545 172 514 115T429 24T306 -9ZM302 61Q351 61 388 84T445 148T466 238Q466 297 428 334T330 372Q281 372 244 349T187 285T166 195Q166 136 205 99T302 61Z" />
<glyph unicode="7" glyph-name="seven" horiz-adv-x="600" d="M136 -7Q111 -7 103 11T110 54L498 634H167Q127 634 127 665Q127 705 169 705H560Q603 705 603 673Q603 660 597 648T581 621L183 22Q163 -7 136 -7Z" />
<glyph unicode="8" glyph-name="eight" horiz-adv-x="600" d="M270 -9Q202 -9 150 12T69 71T39 162Q39 212 59 254T116 325T199 363Q156 381 132 418T108 507Q108 573 141 619T233 689T366 713Q430 713 478 693T554 635T581 546Q581 479 542 428T440 358Q488 343
517 304T546 209Q546 139 511 90T413 16T270 -9ZM325 391Q403 391 452 430T502 538Q502 590 465 617T363 645Q281 645 234 608T187 501Q187 448 224 420T325 391ZM274 59Q363 59 415 98T467 213Q467 268 425 295T313 323Q224 323 171 285T118 171Q118 115 161 87T274
59Z" />
<glyph unicode="9" glyph-name="nine" horiz-adv-x="600" d="M238 -9Q189 -9 139 10T52 66Q38 78 38 92T45 118T66 131T95 121Q156 64 244 64Q309 64 359 103T441 216T480 391Q455 331 400 297T283 263Q226 263 183 289T114 361T89 461Q89 533 120 590T205 681T328
714Q435 714 497 644T559 453Q559 358 539 274T479 127T378 27T238 -9ZM304 333Q353 333 390 356T447 420T468 510Q468 569 430 607T332 645Q283 645 247 621T190 557T169 467Q169 408 207 371T304 333Z" />
<glyph unicode=":" glyph-name="colon" horiz-adv-x="228" d="M146 380Q121 380 106 395T91 435Q91 460 106 475T146 490Q171 490 185 475T200 435Q200 411 186 396T146 380ZM85 -4Q60 -4 45 11T30 51Q30 75 45 90T85 106Q110 106 125 91T140 51Q140 27 125 12T85 -4Z" />
<glyph unicode=";" glyph-name="semicolon" horiz-adv-x="228" d="M146 380Q121 380 106 395T91 435Q91 460 106 475T146 490Q171 490 185 475T200 435Q200 411 186 396T146 380ZM74 -97Q59 -111 45 -108T27 -91T38 -62Q68 -32 77 -3Q55 0 43 15T30 51Q30 75 44
90T84 106Q109 106 122 90T136 44Q136 -36 74 -97Z" />
<glyph unicode="&lt;" glyph-name="less" horiz-adv-x="600" d="M480 50L92 239Q56 256 56 282Q56 298 66 310T93 329L548 522Q564 528 575 523T590 505T591 481T571 463L140 283L507 106Q527 97 527 80T514 51T480 50Z" />
<glyph unicode="=" glyph-name="equal" horiz-adv-x="600" d="M105 356Q71 356 71 381Q71 418 108 418H540Q573 418 573 392Q573 356 536 356H105ZM73 157Q40 157 40 182Q40 218 77 218H509Q542 218 542 193Q542 157 505 157H73Z" />
<glyph unicode="&gt;" glyph-name="greater" horiz-adv-x="600" d="M66 53Q45 44 33 56T21 85T43 111L473 290L107 468Q87 477 87 494T99 523T132 525L522 335Q558 318 558 292Q558 260 521 245L66 53Z" />
<glyph unicode="?" glyph-name="question" horiz-adv-x="443" d="M201 180Q186 180 180 190T176 216Q181 250 191 279T224 339T288 406Q340 451 362 482T385 555Q385 592 361 616T283 641Q239 641 200 627T125 586Q101 571 85 580T68 609T89 645Q131 679 186 696T295
714Q350 714 389 694T448 640T468 565Q468 506 433 458T340 366Q284 321 262 283T230 208Q226 194 220 187T201 180ZM177 -4Q152 -4 137 11T121 51Q121 75 136 90T177 106Q201 106 216 91T231 51Q231 27 216 12T177 -4Z" />
<glyph unicode="@" glyph-name="at" horiz-adv-x="946" d="M495 -163Q368 -163 273 -110T124 42T71 273Q71 371 103 452T193 591T331 682T508 714Q624 714 711 668T847 538T896 344Q896 257 872 193T805 94T705 59Q656 59 626 82T590 148Q563 105 523 82T439 59Q362
59 320 107T277 241Q277 314 305 371T382 462T493 495Q589 495 620 417L627 459Q633 491 665 491Q700 491 693 454L654 227Q649 201 649 180Q649 113 710 113Q767 113 803 176T839 344Q839 439 798 509T682 618T508 657Q396 657 312 609T182 475T135 273Q135 154
179 69T304 -61T495 -107Q569 -107 628 -86T730 -29Q749 -15 763 -21T780 -44T765 -75Q717 -117 648 -140T495 -163ZM449 117Q493 117 528 143T583 217T603 325Q603 437 501 437Q456 437 421 412T366 342T346 241Q346 181 373 149T449 117Z" />
<glyph unicode="A" glyph-name="A" horiz-adv-x="729" d="M40 -7Q17 -7 7 8T9 47L391 683Q408 712 439 712Q472 712 482 679L658 49Q666 20 656 7T627 -7Q593 -7 583 32L544 180H176L82 19Q67 -7 40 -7ZM427 609L216 249H525L429 609H427Z" />
<glyph unicode="B" glyph-name="B" horiz-adv-x="676" d="M98 0Q75 0 64 13T56 49L154 664Q160 705 202 705H428Q538 705 590 660T642 540Q642 470 603 423T498 357Q549 340 578 301T607 208Q607 106 542 53T358 0H98ZM191 390H392Q470 390 515 426T561 532Q561
584 526 611T417 639H230L191 390ZM139 66H358Q525 66 525 211Q525 267 488 295T382 324H180L139 66Z" />
<glyph unicode="C" glyph-name="C" horiz-adv-x="673" d="M382 -9Q292 -9 224 25T116 130T77 307Q77 394 102 468T174 597T289 683T441 714Q570 714 653 642Q668 630 669 615T662 587T641 570T612 578Q573 611 531 625T438 639Q353 639 292 596T198 479T165 309Q165
179 224 123T390 66Q436 66 476 79T556 124Q572 135 585 132T606 116T612 89T594 62Q548 26 494 9T382 -9Z" />
<glyph unicode="D" glyph-name="D" horiz-adv-x="742" d="M98 0Q75 0 64 13T56 49L154 664Q160 705 202 705H368Q528 705 615 628T702 410Q702 325 678 251T605 121T481 32T302 0H98ZM142 70H304Q388 70 447 96T543 170T597 278T615 409Q615 519 553 577T367 635H232L142
70Z" />
<glyph unicode="E" glyph-name="E" horiz-adv-x="583" d="M98 0Q49 0 56 49L154 664Q160 705 202 705H571Q608 705 608 678Q608 657 597 647T567 636H230L191 392H501Q537 392 537 365Q537 344 526 334T497 323H180L139 69H470Q507 69 507 41Q507 20 496 10T466 0H98Z" />
<glyph unicode="F" glyph-name="F" horiz-adv-x="548" d="M94 -7Q48 -7 55 42L154 664Q160 705 202 705H557Q594 705 594 677Q594 636 553 636H233L193 390H487Q524 390 524 362Q524 321 483 321H183L137 35Q130 -7 94 -7Z" />
<glyph unicode="G" glyph-name="G" horiz-adv-x="726" d="M391 -9Q244 -9 160 69T76 296Q76 420 120 514T248 661T446 714Q510 714 566 696T660 645Q676 632 678 616T672 587T650 571T619 580Q583 611 539 625T441 640Q354 640 292 597T197 477T163 298Q163 179
223 122T400 64Q443 64 479 71T550 89L584 302H441Q403 302 403 330Q403 348 414 357T444 367H624Q643 367 653 356T659 325L618 64Q613 33 588 24Q549 9 496 0T391 -9Z" />
<glyph unicode="H" glyph-name="H" horiz-adv-x="761" d="M90 -7Q47 -7 55 43L155 670Q161 712 201 712Q244 712 236 662L193 393H615L660 670Q666 712 706 712Q749 712 741 662L641 35Q634 -7 595 -7Q552 -7 560 43L604 322H182L136 35Q130 -7 90 -7Z" />
<glyph unicode="I" glyph-name="I" horiz-adv-x="257" d="M91 -7Q47 -7 55 43L155 670Q161 712 201 712Q244 712 236 662L136 35Q130 -7 91 -7Z" />
<glyph unicode="J" glyph-name="J" horiz-adv-x="324" d="M-6 -6Q-25 -8 -36 1T-47 28Q-46 61 -12 64L20 66Q127 74 147 196L222 673Q228 712 268 712Q288 712 297 700T303 666L227 186Q213 99 166 52T25 -4L-6 -6Z" />
<glyph unicode="K" glyph-name="K" horiz-adv-x="625" d="M91 -7Q71 -7 61 5T55 42L155 671Q162 712 201 712Q221 712 230 700T236 664L192 385H194L570 693Q581 703 590 707T612 712Q628 712 637 702T647 679T633 654L271 356L557 50Q574 33 565 13T530 -7Q516
-7 507 -1T485 19L186 334H184L137 33Q130 -7 91 -7Z" />
<glyph unicode="L" glyph-name="L" horiz-adv-x="543" d="M95 0Q49 0 56 46L156 674Q161 712 200 712Q244 712 237 666L143 72H464Q502 72 502 43Q502 21 490 11T459 0H95Z" />
<glyph unicode="M" glyph-name="M" horiz-adv-x="856" d="M91 -2Q51 -2 57 40L158 675Q164 712 199 712Q215 712 224 705T239 680L417 194L756 687Q773 712 801 712Q840 712 834 669L733 34Q727 -2 693 -2Q675 -2 666 9T659 40L740 551L444 122Q430 102 409 102Q383
102 373 129L214 556L131 34Q125 -2 91 -2Z" />
<glyph unicode="N" glyph-name="N" horiz-adv-x="739" d="M88 -7Q70 -7 61 5T55 39L156 676Q162 712 195 712Q211 712 219 706T236 685L557 129L644 674Q649 712 688 712Q726 712 719 666L618 30Q612 -7 582 -7Q566 -7 557 0T538 21L216 577L130 31Q124 -7 88 -7Z" />
<glyph unicode="O" glyph-name="O" horiz-adv-x="767" d="M368 -9Q280 -9 214 26T112 128T76 294Q76 413 118 508T239 658T434 714Q523 714 588 679T690 577T726 412Q726 292 684 197T563 47T368 -9ZM370 64Q457 64 517 109T608 233T639 411Q639 527 584 584T431
641Q345 641 285 596T194 472T163 295Q163 178 218 121T370 64Z" />
<glyph unicode="P" glyph-name="P" horiz-adv-x="633" d="M91 -7Q71 -7 62 5T55 41L154 665Q161 705 201 705H415Q523 705 582 657T641 515Q641 407 574 344T378 281H176L136 34Q130 -7 91 -7ZM187 350H382Q469 350 514 391T559 510Q559 576 521 606T408 637H232L187
350Z" />
<glyph unicode="Q" glyph-name="Q" horiz-adv-x="767" d="M583 -140Q592 -160 586 -174T566 -193T537 -194T513 -170L467 -69Q440 -9 356 -9H357Q229 -5 153 73T76 294Q76 413 118 508T239 658T434 714Q523 714 588 679T690 577T726 412Q726 314 698 232T616 93T485
9Q521 -7 545 -58L583 -140ZM370 64Q457 64 517 109T608 233T639 411Q639 527 584 584T431 641Q345 641 285 596T194 472T163 295Q163 178 218 121T370 64Z" />
<glyph unicode="R" glyph-name="R" horiz-adv-x="669" d="M90 -7Q71 -7 62 6T56 42L154 664Q161 705 202 705H412Q526 705 583 654T641 515Q641 423 587 370T447 305Q470 294 487 272T517 218L582 48Q592 22 584 8T550 -7Q521 -7 507 29L434 219Q418 262 392 280T316
298H178L137 34Q130 -7 90 -7ZM189 363H389Q469 363 514 401T559 510Q559 573 522 605T403 637H232L189 363Z" />
<glyph unicode="S" glyph-name="S" horiz-adv-x="615" d="M297 -9Q230 -9 166 7T51 60Q36 70 33 84T37 112T57 129T89 122Q137 88 190 76T304 64Q385 64 434 97T483 189Q483 229 454 257T352 302L249 327Q179 344 137 385T95 503Q95 568 130 615T226 688T358 714Q416
714 477 697T584 641Q597 631 599 616T595 589T574 573T542 583Q503 614 455 627T356 641Q305 641 265 625T202 579T178 508Q178 457 203 433T279 396L383 372Q477 350 521 306T566 198Q566 130 530 84T432 15T297 -9Z" />
<glyph unicode="T" glyph-name="T" horiz-adv-x="602" d="M263 -7Q243 -7 234 6T229 42L322 634H103Q64 634 64 664Q64 683 76 694T107 705H635Q674 705 674 676Q674 634 631 634H404L309 34Q303 -7 263 -7Z" />
<glyph unicode="U" glyph-name="U" horiz-adv-x="728" d="M335 -9Q246 -9 186 25T100 127T90 297L150 673Q156 712 196 712Q239 712 231 665L172 290Q136 64 339 64Q437 64 493 114T568 273L632 673Q638 712 677 712Q697 712 706 700T712 665L650 269Q628 131
552 61T335 -9Z" />
<glyph unicode="V" glyph-name="V" horiz-adv-x="688" d="M306 -7Q269 -7 258 33L87 654Q80 677 91 691T123 705Q155 705 165 668L317 105L653 675Q671 705 701 705Q725 705 733 689T730 651L357 25Q347 8 336 1T306 -7Z" />
<glyph unicode="W" glyph-name="W" horiz-adv-x="1101" d="M273 -7Q239 -7 231 35L112 661Q107 684 118 698T150 712Q183 712 190 673L291 121L573 679Q590 712 621 712Q651 712 659 669L762 115L1046 681Q1061 712 1090 712Q1114 712 1122 696T1120 657L799 26Q782
-7 748 -7Q714 -7 706 35L604 579L323 26Q314 9 303 1T273 -7Z" />
<glyph unicode="X" glyph-name="X" horiz-adv-x="650" d="M43 -7Q19 -7 10 13T20 54L296 364L128 652Q114 676 124 694T159 712Q174 712 182 705T201 681L351 418L585 687Q607 712 632 712Q655 712 664 693T656 652L394 356L571 53Q585 30 575 12T540 -7Q524 -7
516 0T497 24L337 301L89 18Q67 -7 43 -7Z" />
<glyph unicode="Y" glyph-name="Y" horiz-adv-x="596" d="M258 -7Q217 -7 224 41L271 333L90 652Q77 676 86 694T120 712Q136 712 145 705T163 681L318 406L567 687Q579 701 589 706T613 712Q636 712 645 693T635 652L353 334L305 34Q299 -7 258 -7Z" />
<glyph unicode="Z" glyph-name="Z" horiz-adv-x="589" d="M50 0Q23 0 16 25T35 80L509 634H146Q109 634 109 663Q109 684 121 694T151 705H582Q616 705 621 680T601 626L125 71H504Q542 71 542 43Q542 21 530 11T500 0H50Z" />
<glyph unicode="[" glyph-name="bracketleft" horiz-adv-x="315" d="M93 -180Q72 -180 60 -166T50 -130L177 672Q180 686 190 695T216 705H342Q383 705 383 675Q383 641 344 641H253L133 -116H223Q240 -116 246 -124T253 -143Q253 -159 243 -169T214 -180H93Z" />
<glyph unicode="\" glyph-name="backslash" horiz-adv-x="283" d="M186 -32L64 711Q61 727 69 737T90 750T114 746T128 721L251 -23Q254 -40 246 -50T224 -62T200 -57T186 -32Z" />
<glyph unicode="]" glyph-name="bracketright" horiz-adv-x="315" d="M-21 -180Q-61 -180 -61 -150Q-61 -116 -23 -116H68L188 641H99Q81 641 75 649T68 668Q68 684 78 694T107 705H228Q249 705 261 691T271 655L144 -147Q142 -161 131 -170T105 -180H-21Z" />
<glyph unicode="^" glyph-name="asciicircum" horiz-adv-x="600" d="M77 133Q56 133 51 146T56 179L317 607Q326 623 336 628T362 634Q391 634 400 600L525 177Q531 156 523 145T497 133Q482 133 476 141T465 162L352 550L113 156Q107 146 99 140T77 133Z" />
<glyph unicode="_" glyph-name="underscore" horiz-adv-x="500" d="M1 -53Q-30 -53 -30 -30Q-30 -15 -20 -8T3 0H414Q444 0 444 -23Q444 -38 434 -45T411 -53H1Z" />
<glyph unicode="`" glyph-name="grave" horiz-adv-x="500" d="M263 558L156 711Q145 728 149 741T166 761T194 763T219 740L309 584Q317 567 310 556T288 543T263 558Z" />
<glyph unicode="a" glyph-name="a" horiz-adv-x="530" d="M199 -9Q157 -9 121 10T62 62T40 137Q40 214 105 248T315 282H384L389 312Q399 369 374 399T286 430Q250 430 217 423T150 397Q134 388 121 392T103 407T102 432T126 455Q164 476 208 485T295 495Q397
495 438 439T464 290L423 33Q417 -7 379 -7Q340 -7 347 39L353 76Q328 33 286 12T199 -9ZM219 52Q273 52 316 88T370 190L376 229H326Q249 229 205 221T141 194T122 142Q122 98 151 75T219 52Z" />
<glyph unicode="b" glyph-name="b" horiz-adv-x="583" d="M295 -9Q240 -9 196 17T132 97L123 34Q117 -7 78 -7Q59 -7 50 5T44 41L144 671Q150 712 190 712Q209 712 218 700T224 664L183 409Q211 449 254 472T351 495Q436 495 487 439T539 287Q539 207 511 140T428
32T295 -9ZM285 56Q341 56 379 87T437 169T457 284Q457 356 422 393T326 430Q270 430 232 400T174 317T154 202Q154 131 189 94T285 56Z" />
<glyph unicode="c" glyph-name="c" horiz-adv-x="463" d="M258 -9Q150 -9 98 51T45 207Q45 261 60 312T107 404T188 470T305 495Q343 495 378 485T440 457Q458 446 462 432T461 406T444 390T418 395Q370 429 308 429Q243 429 204 397T146 313T128 208Q128 140
160 99T268 57Q291 57 317 64T370 89Q387 100 401 91T416 63T398 32Q371 13 332 2T258 -9Z" />
<glyph unicode="d" glyph-name="d" horiz-adv-x="583" d="M231 -9Q147 -9 96 47T44 199Q44 280 72 347T155 455T288 495Q343 495 386 470T450 391L495 673Q500 712 541 712Q582 712 574 665L474 34Q468 -7 428 -7Q409 -7 401 6T396 42L403 82Q375 40 331 16T231
-9ZM257 56Q313 56 351 87T409 169T429 284Q429 356 394 393T298 430Q242 430 204 400T146 317T126 202Q126 131 161 94T257 56Z" />
<glyph unicode="e" glyph-name="e" horiz-adv-x="532" d="M270 -9Q166 -9 105 48T44 206Q44 285 76 350T166 455T304 495Q380 495 424 461T484 371T493 254Q490 237 484 232T462 226H123Q116 148 156 102T274 56Q310 56 343 64T408 94Q430 108 444 100T458 73T438
40Q404 16 358 4T270 -9ZM303 435Q250 435 215 413T160 354T131 279H427Q433 345 405 390T303 435Z" />
<glyph unicode="f" glyph-name="f" horiz-adv-x="333" d="M103 -7Q84 -7 75 5T70 41L131 423H71Q39 423 39 448Q39 486 78 486H140L146 524Q159 605 210 652T351 705L382 707Q405 709 412 694T413 662T388 644L358 642Q299 638 268 609T227 522L221 486H326Q358
486 358 462Q358 423 319 423H212L150 33Q143 -7 103 -7Z" />
<glyph unicode="g" glyph-name="g" horiz-adv-x="586" d="M248 -189Q190 -189 140 -173T49 -131Q35 -122 33 -109T37 -85T56 -70T84 -75Q119 -98 156 -111T239 -124Q303 -124 343 -92T394 9L409 102Q383 59 339 35T238 11Q150 11 97 65T44 210Q44 285 73 350T157
455T290 495Q346 495 390 470T454 392L463 454Q469 493 510 493Q549 493 542 446L473 13Q441 -189 248 -189ZM259 77Q315 77 354 107T413 186T433 294Q433 358 398 394T300 430Q243 430 205 400T146 320T126 214Q126 148 161 113T259 77Z" />
<glyph unicode="h" glyph-name="h" horiz-adv-x="568" d="M77 -7Q58 -7 49 6T44 42L143 671Q149 712 190 712Q209 712 218 700T223 665L182 406Q209 449 253 472T355 495Q436 495 477 446T502 294L462 34Q456 -7 415 -7Q396 -7 387 5T381 41L421 294Q443 429 331
429Q258 429 215 384T160 264L124 34Q118 -7 77 -7Z" />
<glyph unicode="i" glyph-name="i" horiz-adv-x="232" d="M175 603Q126 603 129 648Q132 702 190 702Q240 702 236 657Q232 603 175 603ZM76 -7Q57 -7 49 5T43 41L109 453Q115 493 155 493Q174 493 183 481T188 446L123 33Q116 -7 76 -7Z" />
<glyph unicode="j" glyph-name="j" horiz-adv-x="236" d="M175 603Q127 603 129 648Q133 702 191 702Q241 702 237 657Q233 603 175 603ZM-83 -191Q-100 -192 -109 -183T-118 -160T-111 -138T-87 -127Q-36 -126 -4 -100T38 -15L112 453Q119 493 158 493Q177 493
186 481T192 446L119 -10Q105 -102 56 -145T-83 -191Z" />
<glyph unicode="k" glyph-name="k" horiz-adv-x="500" d="M77 -7Q36 -7 44 40L144 673Q149 712 190 712Q209 712 218 699T223 664L161 270H163L403 471Q416 482 426 487T450 493Q473 493 479 473T465 435L243 247L425 52Q443 32 434 13T402 -7Q386 -7 376 0T351
24L157 230H155L123 32Q118 -7 77 -7Z" />
<glyph unicode="l" glyph-name="l" horiz-adv-x="296" d="M186 -9Q114 -9 82 33T62 159L144 672Q150 712 190 712Q209 712 218 700T223 664L143 159Q135 106 151 83T208 60Q222 60 229 61T242 63Q250 63 254 58T258 39Q258 20 249 10T226 -5Q219 -7 207 -8T186 -9Z" />
<glyph unicode="m" glyph-name="m" horiz-adv-x="856" d="M78 -7Q38 -7 45 40L111 454Q117 493 156 493Q175 493 183 481T189 447L182 403Q210 448 251 471T341 495Q394 495 429 469T476 393Q502 442 546 468T650 495Q726 495 765 446T788 294L747 32Q741 -7 701
-7Q660 -7 667 40L707 298Q728 429 626 429Q565 429 525 385T473 264L436 32Q431 -7 390 -7Q371 -7 362 5T356 40L397 298Q418 429 316 429Q255 429 215 385T162 264L126 32Q120 -7 78 -7Z" />
<glyph unicode="n" glyph-name="n" horiz-adv-x="568" d="M77 -6Q58 -6 50 7T44 42L109 453Q115 493 156 493Q174 493 182 482T187 448L180 403Q207 447 251 471T355 495Q436 495 477 446T502 294L461 33Q455 -6 415 -6Q396 -6 387 6T381 41L421 294Q443 429 331
429Q258 429 215 384T160 264L124 34Q118 -6 77 -6Z" />
<glyph unicode="o" glyph-name="o" horiz-adv-x="556" d="M255 -9Q157 -9 101 48T44 205Q44 287 76 353T165 457T301 495Q399 495 455 438T511 281Q511 199 480 134T390 30T255 -9ZM258 56Q313 56 351 87T409 169T429 284Q429 356 395 393T298 430Q243 430 205
400T146 317T126 202Q126 131 161 94T258 56Z" />
<glyph unicode="p" glyph-name="p" horiz-adv-x="583" d="M48 -187Q29 -187 20 -175T15 -140L109 452Q115 493 155 493Q195 493 187 446L181 405Q209 448 252 471T351 495Q436 495 487 439T539 287Q539 207 511 140T428 32T295 -9Q241 -9 197 16T133 94L94 -148Q88
-187 48 -187ZM285 56Q341 56 379 87T437 169T457 284Q457 356 422 393T326 430Q270 430 232 400T174 317T154 202Q154 131 189 94T285 56Z" />
<glyph unicode="q" glyph-name="q" horiz-adv-x="583" d="M399 -187Q359 -187 366 -140L400 79Q372 38 329 15T232 -9Q147 -9 96 47T44 199Q44 280 72 347T155 455T289 495Q344 495 388 469T451 388L461 453Q468 493 506 493Q525 493 534 481T540 446L446 -146Q439
-187 399 -187ZM257 56Q313 56 351 87T409 169T429 284Q429 356 394 393T298 430Q242 430 204 400T146 317T126 202Q126 131 161 94T257 56Z" />
<glyph unicode="r" glyph-name="r" horiz-adv-x="358" d="M77 -7Q36 -7 44 40L109 454Q115 493 155 493Q173 493 182 481T188 447L181 406Q207 449 251 472T347 496Q368 497 376 491T385 468Q385 447 375 438T343 425L323 424Q242 416 208 376T162 268L124 32Q119
-7 77 -7Z" />
<glyph unicode="s" glyph-name="s" horiz-adv-x="481" d="M223 -9Q175 -9 132 2T56 33Q41 42 37 55T38 80T56 95T85 90Q116 71 151 62T224 53Q278 53 308 74T339 135Q339 185 274 200L180 223Q130 235 102 266T73 344Q73 409 126 452T272 495Q312 495 353 484T421
451Q441 437 441 419T426 393T390 397Q339 433 269 433Q213 433 181 410T149 348Q149 324 163 307T209 282L304 259Q357 246 386 217T416 140Q416 70 363 31T223 -9Z" />
<glyph unicode="t" glyph-name="t" horiz-adv-x="350" d="M238 -9Q153 -9 114 39T87 167L128 423H66Q30 423 30 450Q30 468 41 477T73 486H138L156 604Q162 642 201 642Q244 642 236 596L219 486H339Q375 486 375 460Q375 443 364 433T335 423H208L169 175Q159
114 181 87T251 60Q272 60 284 64T304 68Q314 68 319 63T324 43Q324 23 318 14T298 0Q272 -9 238 -9Z" />
<glyph unicode="u" glyph-name="u" horiz-adv-x="561" d="M211 -9Q132 -9 91 40T66 193L107 455Q113 493 152 493Q172 493 181 481T187 448L147 193Q126 58 235 58Q304 58 347 103T401 223L437 455Q443 493 482 493Q524 493 518 449L452 32Q446 -7 408 -7Q367
-7 374 37L380 82Q353 38 310 15T211 -9Z" />
<glyph unicode="v" glyph-name="v" horiz-adv-x="515" d="M221 -7Q183 -7 171 35L62 435Q55 461 65 477T100 493Q116 493 125 485T140 456L231 92L444 465Q460 493 488 493Q512 493 520 477T515 439L272 26Q253 -7 221 -7Z" />
<glyph unicode="w" glyph-name="w" horiz-adv-x="841" d="M205 -7Q188 -7 176 3T159 34L75 434Q69 460 79 476T111 493Q128 493 136 485T148 456L218 96L410 465Q425 493 455 493Q470 493 481 485T496 458L567 92L758 463Q774 493 803 493Q827 493 834 478T830
441L611 26Q594 -7 559 -7Q521 -7 512 34L442 377L258 27Q240 -7 205 -7Z" />
<glyph unicode="x" glyph-name="x" horiz-adv-x="525" d="M45 -7Q20 -7 13 11T21 47L217 252L99 435Q83 460 94 476T125 493Q151 493 168 467L272 303L427 471Q438 483 447 488T471 493Q496 493 503 475T495 440L313 247L439 52Q456 27 445 10T413 -7Q386 -7 370
19L258 194L88 15Q77 4 68 -1T45 -7Z" />
<glyph unicode="y" glyph-name="y" horiz-adv-x="514" d="M119 -187Q95 -187 88 -171T94 -132L177 8L62 436Q55 461 65 477T99 493Q117 493 125 485T139 456L229 92L443 464Q459 493 487 493Q511 493 519 477T515 438L163 -157Q154 -172 145 -179T119 -187Z" />
<glyph unicode="z" glyph-name="z" horiz-adv-x="463" d="M55 0Q29 0 21 19T32 61L355 424H115Q82 424 82 450Q82 486 119 486H423Q450 486 457 466T442 422L121 63H373Q407 63 407 37Q407 20 397 10T370 0H55Z" />
<glyph unicode="{" glyph-name="braceleft" horiz-adv-x="352" d="M202 -180Q140 -180 114 -153T96 -78L131 149Q139 196 124 211T71 229Q46 232 46 257Q46 273 54 284T77 296Q119 297 139 314T167 376L203 603Q220 705 316 705H383Q418 705 418 674Q418 659 408
650T383 641H333Q290 641 283 596L247 368Q240 320 214 295T159 263Q184 256 202 230T213 157L178 -72Q171 -116 213 -116H256Q270 -116 279 -124T288 -145Q288 -180 253 -180H202Z" />
<glyph unicode="|" glyph-name="bar" horiz-adv-x="265" d="M64 -187Q24 -187 31 -139L160 672Q166 712 206 712Q246 712 239 664L111 -147Q105 -187 64 -187Z" />
<glyph unicode="}" glyph-name="braceright" horiz-adv-x="352" d="M-24 -180Q-60 -180 -60 -149Q-60 -133 -50 -125T-24 -116H26Q68 -116 75 -71L111 157Q118 205 145 230T200 262Q174 269 156 295T145 368L180 597Q188 641 145 641H102Q89 641 80 649T70 670Q70
705 106 705H156Q218 705 244 678T263 603L227 376Q220 329 235 314T287 296Q312 293 312 268Q312 252 304 241T281 229Q239 229 219 212T191 149L155 -78Q138 -180 42 -180H-24Z" />
<glyph unicode="~" glyph-name="asciitilde" horiz-adv-x="600" d="M420 217Q385 217 354 231T295 260Q268 275 244 286T198 297Q169 297 150 283T117 249Q106 234 91 236T67 250T70 281Q94 319 124 338T194 358Q229 358 261 344T322 313Q349 299 371 288T415
277Q445 277 464 291T497 325Q508 340 523 338T547 324T544 293Q495 217 420 217Z" />
<glyph unicode="&#xa0;" glyph-name="uni00A0" horiz-adv-x="258" />
<glyph unicode="&#xa1;" glyph-name="exclamdown" horiz-adv-x="228" d="M146 380Q121 380 106 395T91 435Q91 460 106 475T146 490Q171 490 185 475T200 435Q200 411 186 396T146 380ZM50 -187Q26 -187 14 -173T8 -131L94 283Q100 309 123 309Q149 309 147 278L101
-138Q97 -187 50 -187Z" />
<glyph unicode="&#xa2;" glyph-name="cent" horiz-adv-x="600" d="M255 -122Q240 -122 231 -114T226 -84L240 3Q163 20 127 74T90 207Q90 272 113 333T187 437T316 489L330 582Q335 613 367 613Q381 613 391 604T398 575L384 491Q457 484 502 447Q520 434 519
417T502 392T466 395Q420 426 358 426Q291 426 251 394T192 311T173 208Q173 142 206 102T319 61Q342 61 369 68T422 93Q437 102 448 98T464 83T467 58T450 37Q418 15 379 5T307 -5L293 -91Q288 -122 255 -122Z" />
<glyph unicode="&#xa3;" glyph-name="sterling" horiz-adv-x="600" d="M50 0Q29 0 19 9T8 32Q8 50 20 60T52 70H118L159 323H91Q73 323 65 331T57 350Q57 364 68 374T95 384H168L189 510Q205 611 261 662T424 714Q476 714 523 698T603 650Q618 638 618 624T611
599T590 586T563 595Q533 622 499 633T425 644Q292 644 271 514L251 384H398Q416 384 424 376T432 357Q432 342 421 333T395 323H241L201 70H487Q508 70 517 61T527 39Q527 22 515 11T483 0H50Z" />
<glyph unicode="&#xa4;" glyph-name="currency" horiz-adv-x="600" d="M51 -11Q41 -1 41 11T51 33L110 93Q87 124 74 163T60 245Q60 288 73 327T110 397L51 458Q31 479 51 501Q60 510 72 510T95 499L153 440Q183 465 221 479T301 493Q342 493 379 480T448 442L503
499Q513 510 526 510T549 501Q559 491 559 479T548 456L491 398Q542 331 542 245Q542 202 529 163T490 92L548 33Q558 23 558 11T548 -11Q540 -20 527 -20T505 -9L448 49Q418 24 381 11T301 -3Q259 -3 221 11T152 49L94 -10Q84 -20 73 -20T51 -11ZM301 67Q347 67
384 91T444 155T467 245Q467 294 445 335T385 399T301 423Q254 423 216 399T156 335T133 245Q133 196 155 156T216 91T301 67Z" />
<glyph unicode="&#xa5;" glyph-name="yen" horiz-adv-x="600" d="M261 -7Q218 -7 226 41L247 175H93Q75 175 67 183T58 203Q58 217 68 226T93 235H257L272 328H118Q100 328 92 336T83 356Q83 370 93 379T118 388H246L96 654Q84 677 94 694T128 712Q143 712 151
705T167 682L321 405L567 688Q577 701 586 706T609 712Q631 712 641 693T634 654L401 388H518Q553 388 553 360Q553 346 543 337T518 328H354L340 235H494Q529 235 529 207Q529 193 519 184T494 175H330L307 33Q301 -7 261 -7Z" />
<glyph unicode="&#xa6;" glyph-name="brokenbar" horiz-adv-x="265" d="M152 365Q133 365 124 377T119 413L160 672Q167 712 207 712Q226 712 235 700T240 664L199 405Q192 365 152 365ZM65 -187Q46 -187 37 -175T32 -139L73 120Q80 160 120 160Q139 160 148 148T153
113L112 -147Q106 -187 65 -187Z" />
<glyph unicode="&#xa7;" glyph-name="section" horiz-adv-x="545" d="M203 -189Q146 -189 99 -176T18 -139Q2 -129 0 -116T3 -92T22 -78T51 -85Q110 -127 201 -127Q267 -127 306 -92T345 -5Q345 34 328 56T270 103L170 163Q56 232 56 320Q56 408 138 465Q127 493
127 526Q127 583 157 625T238 690T348 714Q397 714 439 703T520 664Q541 650 540 633T523 607T486 612Q459 631 423 641T350 652Q284 652 246 617T207 530Q207 491 223 467T282 419L379 362Q495 293 495 205Q495 162 474 125T413 59Q424 33 424 0Q424 -57 394 -99T314
-165T203 -189ZM130 332Q130 300 152 273T217 221L305 168Q331 152 349 137T380 105Q400 125 410 148T421 193Q421 225 399 251T332 304L247 354Q222 370 203 386T170 420Q150 400 140 377T130 332Z" />
<glyph unicode="&#xa8;" glyph-name="dieresis" horiz-adv-x="500" d="M395 606Q355 606 355 643Q355 669 369 684T409 699Q449 699 449 662Q449 635 435 621T395 606ZM221 606Q180 606 180 643Q180 669 194 684T234 699Q275 699 275 662Q275 635 261 621T221 606Z" />
<glyph unicode="&#xa9;" glyph-name="copyright" horiz-adv-x="815" d="M425 -9Q348 -9 282 18T167 95T91 210T63 353Q63 430 90 495T167 610T282 686T425 714Q502 714 567 687T682 610T758 496T786 353Q786 276 759 211T682 96T568 19T425 -9ZM425 35Q492 35
549 59T649 126T716 227T740 353Q740 421 716 478T650 579T550 646T425 670Q358 670 300 646T200 579T133 479T109 353Q109 285 133 228T199 127T300 59T425 35ZM438 137Q342 137 286 196T230 355Q230 454 286 511T438 568Q472 568 505 558T566 526Q581 516 580
501T567 477T535 479Q511 495 488 502T441 509Q376 509 339 469T302 355Q302 282 339 240T441 197Q465 197 488 203T537 228Q555 239 567 231T580 206T567 180Q540 159 506 148T438 137Z" />
<glyph unicode="&#xaa;" glyph-name="ordfeminine" horiz-adv-x="327" d="M168 411Q126 411 98 437T69 501Q69 545 110 566T239 587H288L291 603Q296 636 277 652T223 669Q182 669 143 650Q127 643 118 651T109 671T127 691Q171 714 227 714Q289 714 321 680T345
588L320 437Q316 411 291 411Q263 411 267 440L272 470H269Q252 442 227 427T168 411ZM181 453Q215 453 245 476T280 534L283 551H246Q180 551 153 540T126 503Q126 481 141 467T181 453Z" />
<glyph unicode="&#xab;" glyph-name="guillemotleft" horiz-adv-x="441" d="M163 91Q148 85 135 90T116 111L63 238Q58 250 59 264T70 293L176 431Q193 453 218 441Q232 435 233 420T222 386L135 262L179 135Q190 101 163 91ZM344 91Q329 85 316 90T297 111L244
238Q239 250 240 264T251 293L357 431Q374 453 399 441Q413 435 414 420T403 386L316 262L360 135Q371 101 344 91Z" />
<glyph unicode="&#xac;" glyph-name="logicalnot" horiz-adv-x="600" d="M496 142Q463 142 470 181L498 358H105Q72 358 72 383Q72 420 109 420H521Q543 420 555 406T564 369L532 172Q528 142 496 142Z" />
<glyph unicode="&#xad;" glyph-name="uni00AD" horiz-adv-x="424" d="M104 233Q69 233 69 259Q69 276 78 288T107 300H329Q364 300 364 273Q364 256 354 245T326 233H104Z" />
<glyph unicode="&#xae;" glyph-name="registered" horiz-adv-x="815" d="M425 -9Q348 -9 282 18T167 95T91 210T63 353Q63 430 90 495T167 610T282 686T425 714Q502 714 567 687T682 610T758 496T786 353Q786 276 759 211T682 96T568 19T425 -9ZM425 35Q492 35
549 59T649 126T716 227T740 353Q740 421 716 478T650 579T550 646T425 670Q358 670 300 646T200 579T133 479T109 353Q109 285 133 228T199 127T300 59T425 35ZM314 136Q281 136 281 171V524Q281 564 321 564H452Q520 564 556 531T593 442Q593 395 569 366T501
328Q533 316 550 271L585 179Q592 159 582 148T554 136Q531 136 523 162L481 271Q472 297 454 305T409 314H347V171Q347 136 314 136ZM347 368H444Q528 368 528 439Q528 510 444 510H347V368Z" />
<glyph unicode="&#xaf;" glyph-name="overscore" horiz-adv-x="500" d="M190 625Q160 625 160 648Q160 680 193 680H440Q470 680 470 657Q470 625 437 625H190Z" />
<glyph unicode="&#xb0;" glyph-name="degree" horiz-adv-x="371" d="M236 415Q194 415 161 434T108 487T88 562Q88 604 107 637T160 690T236 710Q278 710 311 691T364 638T384 562Q384 520 365 487T312 434T236 415ZM236 469Q276 469 301 495T326 562Q326 603
301 629T236 655Q197 655 172 629T147 562Q147 522 172 496T236 469Z" />
<glyph unicode="&#xb1;" glyph-name="plusminus" horiz-adv-x="600" d="M283 120Q249 120 255 159L277 297H96Q63 297 63 323Q63 359 100 359H288L309 504Q314 536 345 536Q362 536 369 526T373 498L352 359H531Q565 359 565 334Q565 297 528 297H341L319 153Q313
120 283 120ZM49 0Q15 0 15 25Q15 62 53 62H484Q518 62 518 37Q518 0 481 0H49Z" />
<glyph unicode="&#xb2;" glyph-name="uni00B2" horiz-adv-x="380" d="M93 282Q61 282 61 309Q61 319 66 326T80 343L230 479Q262 508 282 536T304 596Q305 622 288 636T238 650Q214 650 192 643T147 623Q129 613 118 622T106 646T124 673Q182 709 253 709Q312
709 345 679T377 604Q376 557 348 520T272 441L160 341H320Q352 341 352 316Q352 282 317 282H93Z" />
<glyph unicode="&#xb3;" glyph-name="uni00B3" horiz-adv-x="380" d="M202 278Q167 278 131 287T68 316Q51 327 52 343T67 367T99 363Q121 348 147 343T202 337Q237 337 262 355T288 409Q290 466 214 466H166Q134 466 134 491Q134 506 143 515T170 525H220Q258
525 284 543T311 596Q312 622 294 636T242 650Q212 650 188 642T145 621Q127 611 116 620T104 644T122 671Q148 687 180 698T252 709Q312 709 346 680T380 607Q379 568 354 539T289 498Q322 487 339 462T356 405Q355 368 335 340T279 295T202 278Z" />
<glyph unicode="&#xb4;" glyph-name="acute" horiz-adv-x="500" d="M331 555Q319 542 306 543T287 556T291 584L398 745Q410 763 424 765T450 760T464 738T456 710L331 555Z" />
<glyph unicode="&#xb5;" glyph-name="uni00B5" horiz-adv-x="600" d="M66 -187Q26 -187 33 -140L128 454Q134 493 174 493Q193 493 202 481T208 447L168 193Q146 58 256 58Q326 58 368 103T422 223L459 454Q464 493 505 493Q546 493 538 447L473 32Q467 -7 428
-7Q410 -7 401 3T394 31L402 86Q379 41 340 16T250 -9Q169 -9 137 47L112 -147Q107 -187 66 -187Z" />
<glyph unicode="&#xb6;" glyph-name="paragraph" horiz-adv-x="588" d="M208 -187Q176 -187 181 -149L253 310Q200 310 162 333T104 394T84 481Q84 547 112 597T191 676T309 705H529Q550 705 560 694T567 660L438 -155Q433 -187 400 -187Q368 -187 374 -149L499
643H371L245 -155Q240 -187 208 -187Z" />
<glyph unicode="&#xb7;" glyph-name="middot" horiz-adv-x="228" d="M119 211Q94 211 79 226T64 266Q64 290 79 305T119 321Q144 321 158 306T173 266Q173 242 159 227T119 211Z" />
<glyph unicode="&#xb8;" glyph-name="cedilla" horiz-adv-x="500" d="M192 -192Q154 -192 123 -182Q107 -177 105 -163T112 -140T138 -136Q161 -145 193 -145Q221 -145 238 -135T255 -106Q255 -80 220 -80Q203 -80 185 -85Q168 -89 162 -83Q156 -77 161 -62L187
20H238L217 -43Q227 -42 235 -42Q269 -42 290 -58T311 -105Q311 -144 277 -168T192 -192Z" />
<glyph unicode="&#xb9;" glyph-name="uni00B9" horiz-adv-x="380" d="M125 282Q94 282 94 308Q94 323 103 332T129 341H197L241 620L187 589Q166 578 152 587T138 614T160 644L252 695Q260 700 269 703T291 707Q312 707 315 695T317 672L264 341H310Q342 341 342
316Q342 302 333 292T307 282H125Z" />
<glyph unicode="&#xba;" glyph-name="ordmasculine" horiz-adv-x="339" d="M214 412Q152 412 113 449T74 551Q74 601 94 637T149 694T226 714Q287 714 326 676T366 575Q366 524 346 488T291 432T214 412ZM215 457Q256 457 281 487T307 576Q307 620 285 644T225
668Q184 668 158 638T132 550Q132 505 154 481T215 457Z" />
<glyph unicode="&#xbb;" glyph-name="guillemotright" horiz-adv-x="441" d="M48 90Q35 97 34 111T45 145L132 269L88 397Q77 430 103 440Q118 446 131 441T151 421L204 294Q209 282 208 268T196 239L91 101Q73 78 48 90ZM229 90Q216 97 215 111T226 145L313 269L269
397Q258 430 284 440Q299 446 312 441T332 421L385 294Q390 282 389 268T377 239L272 101Q254 78 229 90Z" />
<glyph unicode="&#xbc;" glyph-name="onequarter" horiz-adv-x="893" d="M125 282Q94 282 94 308Q94 323 103 332T129 341H197L241 620L187 589Q166 578 152 587T138 614T160 644L252 695Q260 700 269 703T291 707Q312 707 315 695T317 672L264 341H310Q342 341
342 316Q342 302 333 292T307 282H125ZM264 -2Q251 -20 234 -18T210 -2T216 31L713 707Q726 726 742 724T766 707T760 674L264 -2ZM736 -3Q702 -3 707 29L716 83H562Q547 83 536 89T525 110Q525 119 529 127T540 143L758 402Q766 412 776 419T803 426Q836 426 831
391L792 142H823Q834 142 842 136T850 117Q850 104 841 94T817 83H783L774 27Q769 -3 736 -3ZM725 142L753 317L605 142H725Z" />
<glyph unicode="&#xbd;" glyph-name="onehalf" horiz-adv-x="937" d="M125 282Q94 282 94 308Q94 323 103 332T129 341H197L241 620L187 589Q166 578 152 587T138 614T160 644L252 695Q260 700 269 703T291 707Q312 707 315 695T317 672L264 341H310Q342 341 342
316Q342 302 333 292T307 282H125ZM264 -2Q251 -20 234 -18T210 -2T216 31L713 707Q726 726 742 724T766 707T760 674L264 -2ZM605 0Q573 0 573 27Q573 37 578 44T592 61L742 197Q774 226 794 254T816 314Q817 340 800 354T750 368Q726 368 704 361T659 341Q641
331 630 340T618 364T636 391Q694 427 765 427Q824 427 857 397T889 322Q888 275 860 238T784 159L672 59H832Q864 59 864 34Q864 0 829 0H605Z" />
<glyph unicode="&#xbe;" glyph-name="threequarters" horiz-adv-x="893" d="M202 278Q167 278 131 287T68 316Q51 327 52 343T67 367T99 363Q121 348 147 343T202 337Q237 337 262 355T288 409Q290 466 214 466H166Q134 466 134 491Q134 506 143 515T170 525H220Q258
525 284 543T311 596Q312 622 294 636T242 650Q212 650 188 642T145 621Q127 611 116 620T104 644T122 671Q148 687 180 698T252 709Q312 709 346 680T380 607Q379 568 354 539T289 498Q322 487 339 462T356 405Q355 368 335 340T279 295T202 278ZM264 -2Q251 -20
234 -18T210 -2T216 31L713 707Q726 726 742 724T766 707T760 674L264 -2ZM736 -3Q702 -3 707 29L716 83H562Q547 83 536 89T525 110Q525 119 529 127T540 143L758 402Q766 412 776 419T803 426Q836 426 831 391L792 142H823Q834 142 842 136T850 117Q850 104 841
94T817 83H783L774 27Q769 -3 736 -3ZM725 142L753 317L605 142H725Z" />
<glyph unicode="&#xbf;" glyph-name="questiondown" horiz-adv-x="443" d="M266 380Q241 380 226 395T210 435Q210 460 225 475T266 490Q290 490 305 475T320 435Q320 411 305 396T266 380ZM150 -189Q98 -189 59 -170T-1 -119T-22 -47Q-22 8 10 51T95 132Q150
173 176 208T212 285Q215 297 221 303T240 309Q271 309 265 277Q259 241 248 212T213 156T151 97Q111 65 87 35T62 -34Q62 -69 87 -92T160 -116Q209 -116 249 -104T325 -68Q344 -57 357 -60T377 -76T379 -103T360 -128Q318 -158 264 -173T150 -189Z" />
<glyph unicode="&#xc0;" glyph-name="Agrave" horiz-adv-x="729" d="M40 -7Q17 -7 7 8T9 47L391 683Q408 712 439 712Q472 712 482 679L658 49Q666 20 656 7T627 -7Q593 -7 583 32L544 180H176L82 19Q67 -7 40 -7ZM427 609L216 249H525L429 609H427ZM413 771L322
891Q310 906 313 919T329 941T356 947T381 927L458 801Q467 786 460 774T438 760T413 771Z" />
<glyph unicode="&#xc1;" glyph-name="Aacute" horiz-adv-x="729" d="M40 -7Q17 -7 7 8T9 47L391 683Q408 712 439 712Q472 712 482 679L658 49Q666 20 656 7T627 -7Q593 -7 583 32L544 180H176L82 19Q67 -7 40 -7ZM427 609L216 249H525L429 609H427ZM485 769Q472
756 459 759T440 774T444 799L543 929Q555 945 569 946T595 940T609 919T599 892L485 769Z" />
<glyph unicode="&#xc2;" glyph-name="Acircumflex" horiz-adv-x="729" d="M40 -7Q17 -7 7 8T9 47L391 683Q408 712 439 712Q472 712 482 679L658 49Q666 20 656 7T627 -7Q593 -7 583 32L544 180H176L82 19Q67 -7 40 -7ZM427 609L216 249H525L429 609H427ZM344
767Q332 755 319 757T299 769T304 794L404 916Q429 947 461 947Q479 947 490 938T511 913L584 794Q594 778 586 768T563 757T536 771L455 884L344 767Z" />
<glyph unicode="&#xc3;" glyph-name="Atilde" horiz-adv-x="729" d="M40 -7Q17 -7 7 8T9 47L391 683Q408 712 439 712Q472 712 482 679L658 49Q666 20 656 7T627 -7Q593 -7 583 32L544 180H176L82 19Q67 -7 40 -7ZM427 609L216 249H525L429 609H427ZM262 781Q251
781 246 789T244 810Q259 865 290 892T366 919Q393 919 417 908T462 881T504 855T544 843Q596 843 615 905Q622 926 643 924Q654 923 659 916T661 894Q646 839 615 813T539 786Q512 786 488 797T443 824T401 850T362 862Q311 862 290 800Q283 779 262 781Z" />
<glyph unicode="&#xc4;" glyph-name="Adieresis" horiz-adv-x="729" d="M40 -7Q17 -7 7 8T9 47L391 683Q408 712 439 712Q472 712 482 679L658 49Q666 20 656 7T627 -7Q593 -7 583 32L544 180H176L82 19Q67 -7 40 -7ZM427 609L216 249H525L429 609H427ZM542 802Q501
802 501 839Q501 865 515 880T555 895Q596 895 596 858Q596 832 582 817T542 802ZM368 802Q328 802 328 839Q328 865 342 880T382 895Q422 895 422 858Q422 832 408 817T368 802Z" />
<glyph unicode="&#xc5;" glyph-name="Aring" horiz-adv-x="729" d="M40 -7Q17 -7 7 8T9 47L391 683Q408 712 439 712Q472 712 482 679L658 49Q666 20 656 7T627 -7Q593 -7 583 32L544 180H176L82 19Q67 -7 40 -7ZM427 609L216 249H525L429 609H427ZM464 758Q414
758 380 791T346 874Q346 922 380 955T464 989Q514 989 548 956T583 874Q583 825 549 792T464 758ZM464 801Q496 801 516 822T536 874Q536 904 516 925T464 946Q433 946 413 925T392 874Q392 843 412 822T464 801Z" />
<glyph unicode="&#xc6;" glyph-name="AE" horiz-adv-x="981" d="M7 -7Q-19 -7 -25 11T-18 47L468 683Q485 705 515 705H970Q1006 705 1006 678Q1006 657 995 647T966 636H567L581 392H899Q936 392 936 365Q936 344 925 334T895 323H584L598 69H870Q906 69 906
41Q906 0 865 0H566Q529 0 526 37L519 180H173L51 18Q32 -7 7 -7ZM494 608L224 249H515L496 608H494Z" />
<glyph unicode="&#xc7;" glyph-name="Ccedilla" horiz-adv-x="673" d="M382 -9Q292 -9 224 25T116 130T77 307Q77 394 102 468T174 597T289 683T441 714Q570 714 653 642Q668 630 669 615T662 587T641 570T612 578Q573 611 531 625T438 639Q353 639 292 596T198
479T165 309Q165 179 224 123T390 66Q436 66 476 79T556 124Q572 135 585 132T606 116T612 89T594 62Q548 26 494 9T382 -9ZM348 -192Q310 -192 279 -182Q263 -177 261 -163T268 -140T294 -136Q317 -145 349 -145Q377 -145 394 -135T411 -106Q411 -80 376 -80Q359
-80 341 -85Q324 -89 318 -83Q312 -77 317 -62L343 20H394L373 -43Q383 -42 391 -42Q425 -42 446 -58T467 -105Q467 -144 433 -168T348 -192Z" />
<glyph unicode="&#xc8;" glyph-name="Egrave" horiz-adv-x="583" d="M98 0Q49 0 56 49L154 664Q160 705 202 705H571Q608 705 608 678Q608 657 597 647T567 636H230L191 392H501Q537 392 537 365Q537 344 526 334T497 323H180L139 69H470Q507 69 507 41Q507 20
496 10T466 0H98ZM372 771L281 891Q269 906 272 919T288 941T315 947T340 927L417 801Q426 786 419 774T397 760T372 771Z" />
<glyph unicode="&#xc9;" glyph-name="Eacute" horiz-adv-x="583" d="M98 0Q49 0 56 49L154 664Q160 705 202 705H571Q608 705 608 678Q608 657 597 647T567 636H230L191 392H501Q537 392 537 365Q537 344 526 334T497 323H180L139 69H470Q507 69 507 41Q507 20
496 10T466 0H98ZM444 769Q431 756 418 759T399 774T403 799L502 929Q514 945 528 946T554 940T568 919T558 892L444 769Z" />
<glyph unicode="&#xca;" glyph-name="Ecircumflex" horiz-adv-x="583" d="M98 0Q49 0 56 49L154 664Q160 705 202 705H571Q608 705 608 678Q608 657 597 647T567 636H230L191 392H501Q537 392 537 365Q537 344 526 334T497 323H180L139 69H470Q507 69 507 41Q507
20 496 10T466 0H98ZM303 767Q291 755 278 757T258 769T263 794L363 916Q388 947 420 947Q438 947 449 938T470 913L543 794Q553 778 545 768T522 757T495 771L414 884L303 767Z" />
<glyph unicode="&#xcb;" glyph-name="Edieresis" horiz-adv-x="583" d="M98 0Q49 0 56 49L154 664Q160 705 202 705H571Q608 705 608 678Q608 657 597 647T567 636H230L191 392H501Q537 392 537 365Q537 344 526 334T497 323H180L139 69H470Q507 69 507 41Q507
20 496 10T466 0H98ZM501 802Q460 802 460 839Q460 865 474 880T514 895Q555 895 555 858Q555 832 541 817T501 802ZM327 802Q287 802 287 839Q287 865 301 880T341 895Q381 895 381 858Q381 832 367 817T327 802Z" />
<glyph unicode="&#xcc;" glyph-name="Igrave" horiz-adv-x="257" d="M91 -7Q47 -7 55 43L155 670Q161 712 201 712Q244 712 236 662L136 35Q130 -7 91 -7ZM176 771L85 891Q73 906 76 919T92 941T119 947T144 927L221 801Q230 786 223 774T201 760T176 771Z" />
<glyph unicode="&#xcd;" glyph-name="Iacute" horiz-adv-x="257" d="M91 -7Q47 -7 55 43L155 670Q161 712 201 712Q244 712 236 662L136 35Q130 -7 91 -7ZM248 769Q235 756 222 759T203 774T207 799L306 929Q318 945 332 946T358 940T372 919T362 892L248 769Z" />
<glyph unicode="&#xce;" glyph-name="Icircumflex" horiz-adv-x="257" d="M91 -7Q47 -7 55 43L155 670Q161 712 201 712Q244 712 236 662L136 35Q130 -7 91 -7ZM107 767Q95 755 82 757T62 769T67 794L167 916Q192 947 224 947Q242 947 253 938T274 913L347 794Q357
778 349 768T326 757T299 771L218 884L107 767Z" />
<glyph unicode="&#xcf;" glyph-name="Idieresis" horiz-adv-x="257" d="M91 -7Q47 -7 55 43L155 670Q161 712 201 712Q244 712 236 662L136 35Q130 -7 91 -7ZM305 802Q264 802 264 839Q264 865 278 880T318 895Q359 895 359 858Q359 832 345 817T305 802ZM131
802Q91 802 91 839Q91 865 105 880T145 895Q185 895 185 858Q185 832 171 817T131 802Z" />
<glyph unicode="&#xd0;" glyph-name="Eth" horiz-adv-x="742" d="M98 0Q75 0 64 13T56 49L154 664Q160 705 202 705H368Q528 705 615 628T702 410Q702 325 678 251T605 121T481 32T302 0H98ZM142 70H304Q388 70 447 96T543 170T597 278T615 409Q615 519 553 577T367
635H232L142 70ZM45 326Q10 326 10 353Q10 390 49 390H356Q391 390 391 364Q391 326 352 326H45Z" />
<glyph unicode="&#xd1;" glyph-name="Ntilde" horiz-adv-x="739" d="M88 -7Q70 -7 61 5T55 39L156 676Q162 712 195 712Q211 712 219 706T236 685L557 129L644 674Q649 712 688 712Q726 712 719 666L618 30Q612 -7 582 -7Q566 -7 557 0T538 21L216 577L130 31Q124
-7 88 -7ZM265 781Q254 781 249 789T247 810Q262 865 293 892T369 919Q396 919 420 908T465 881T507 855T547 843Q599 843 618 905Q625 926 646 924Q657 923 662 916T664 894Q649 839 618 813T542 786Q515 786 491 797T446 824T404 850T365 862Q314 862 293 800Q286
779 265 781Z" />
<glyph unicode="&#xd2;" glyph-name="Ograve" horiz-adv-x="767" d="M368 -9Q280 -9 214 26T112 128T76 294Q76 413 118 508T239 658T434 714Q523 714 588 679T690 577T726 412Q726 292 684 197T563 47T368 -9ZM370 64Q457 64 517 109T608 233T639 411Q639 527
584 584T431 641Q345 641 285 596T194 472T163 295Q163 178 218 121T370 64ZM420 771L329 891Q317 906 320 919T336 941T363 947T388 927L465 801Q474 786 467 774T445 760T420 771Z" />
<glyph unicode="&#xd3;" glyph-name="Oacute" horiz-adv-x="767" d="M368 -9Q280 -9 214 26T112 128T76 294Q76 413 118 508T239 658T434 714Q523 714 588 679T690 577T726 412Q726 292 684 197T563 47T368 -9ZM370 64Q457 64 517 109T608 233T639 411Q639 527
584 584T431 641Q345 641 285 596T194 472T163 295Q163 178 218 121T370 64ZM492 769Q479 756 466 759T447 774T451 799L550 929Q562 945 576 946T602 940T616 919T606 892L492 769Z" />
<glyph unicode="&#xd4;" glyph-name="Ocircumflex" horiz-adv-x="767" d="M368 -9Q280 -9 214 26T112 128T76 294Q76 413 118 508T239 658T434 714Q523 714 588 679T690 577T726 412Q726 292 684 197T563 47T368 -9ZM370 64Q457 64 517 109T608 233T639 411Q639
527 584 584T431 641Q345 641 285 596T194 472T163 295Q163 178 218 121T370 64ZM351 767Q339 755 326 757T306 769T311 794L411 916Q436 947 468 947Q486 947 497 938T518 913L591 794Q601 778 593 768T570 757T543 771L462 884L351 767Z" />
<glyph unicode="&#xd5;" glyph-name="Otilde" horiz-adv-x="767" d="M368 -9Q280 -9 214 26T112 128T76 294Q76 413 118 508T239 658T434 714Q523 714 588 679T690 577T726 412Q726 292 684 197T563 47T368 -9ZM370 64Q457 64 517 109T608 233T639 411Q639 527
584 584T431 641Q345 641 285 596T194 472T163 295Q163 178 218 121T370 64ZM269 781Q258 781 253 789T251 810Q266 865 297 892T373 919Q400 919 424 908T469 881T511 855T551 843Q603 843 622 905Q629 926 650 924Q661 923 666 916T668 894Q653 839 622 813T546
786Q519 786 495 797T450 824T408 850T369 862Q318 862 297 800Q290 779 269 781Z" />
<glyph unicode="&#xd6;" glyph-name="Odieresis" horiz-adv-x="767" d="M368 -9Q280 -9 214 26T112 128T76 294Q76 413 118 508T239 658T434 714Q523 714 588 679T690 577T726 412Q726 292 684 197T563 47T368 -9ZM370 64Q457 64 517 109T608 233T639 411Q639
527 584 584T431 641Q345 641 285 596T194 472T163 295Q163 178 218 121T370 64ZM549 802Q508 802 508 839Q508 865 522 880T562 895Q603 895 603 858Q603 832 589 817T549 802ZM375 802Q335 802 335 839Q335 865 349 880T389 895Q429 895 429 858Q429 832 415
817T375 802Z" />
<glyph unicode="&#xd7;" glyph-name="multiply" horiz-adv-x="600" d="M118 67Q101 52 85 58T64 81T74 111L264 286L107 458Q93 474 99 490T122 511T155 499L310 329L498 501Q515 517 530 511T551 488T541 457L352 283L510 109Q524 93 518 78T495 57T462 69L306
240L118 67Z" />
<glyph unicode="&#xd8;" glyph-name="Oslash" horiz-adv-x="767" d="M368 -9Q280 -9 214 26T112 128T76 294Q76 413 118 508T239 658T434 714Q523 714 588 679T690 577T726 412Q726 292 684 197T563 47T368 -9ZM370 64Q457 64 517 109T608 233T639 411Q639 527
584 584T431 641Q345 641 285 596T194 472T163 295Q163 178 218 121T370 64ZM162 -20Q150 -37 133 -34T108 -16T114 17L169 91L196 128L556 614L583 651L638 724Q652 741 668 738T693 720T687 688L633 614L606 577L246 92L218 54L162 -20Z" />
<glyph unicode="&#xd9;" glyph-name="Ugrave" horiz-adv-x="728" d="M335 -9Q246 -9 186 25T100 127T90 297L150 673Q156 712 196 712Q239 712 231 665L172 290Q136 64 339 64Q437 64 493 114T568 273L632 673Q638 712 677 712Q697 712 706 700T712 665L650 269Q628
131 552 61T335 -9ZM411 771L320 891Q308 906 311 919T327 941T354 947T379 927L456 801Q465 786 458 774T436 760T411 771Z" />
<glyph unicode="&#xda;" glyph-name="Uacute" horiz-adv-x="728" d="M335 -9Q246 -9 186 25T100 127T90 297L150 673Q156 712 196 712Q239 712 231 665L172 290Q136 64 339 64Q437 64 493 114T568 273L632 673Q638 712 677 712Q697 712 706 700T712 665L650 269Q628
131 552 61T335 -9ZM483 769Q470 756 457 759T438 774T442 799L541 929Q553 945 567 946T593 940T607 919T597 892L483 769Z" />
<glyph unicode="&#xdb;" glyph-name="Ucircumflex" horiz-adv-x="728" d="M335 -9Q246 -9 186 25T100 127T90 297L150 673Q156 712 196 712Q239 712 231 665L172 290Q136 64 339 64Q437 64 493 114T568 273L632 673Q638 712 677 712Q697 712 706 700T712 665L650
269Q628 131 552 61T335 -9ZM342 767Q330 755 317 757T297 769T302 794L402 916Q427 947 459 947Q477 947 488 938T509 913L582 794Q592 778 584 768T561 757T534 771L453 884L342 767Z" />
<glyph unicode="&#xdc;" glyph-name="Udieresis" horiz-adv-x="728" d="M335 -9Q246 -9 186 25T100 127T90 297L150 673Q156 712 196 712Q239 712 231 665L172 290Q136 64 339 64Q437 64 493 114T568 273L632 673Q638 712 677 712Q697 712 706 700T712 665L650
269Q628 131 552 61T335 -9ZM540 802Q499 802 499 839Q499 865 513 880T553 895Q594 895 594 858Q594 832 580 817T540 802ZM366 802Q326 802 326 839Q326 865 340 880T380 895Q420 895 420 858Q420 832 406 817T366 802Z" />
<glyph unicode="&#xdd;" glyph-name="Yacute" horiz-adv-x="596" d="M258 -7Q217 -7 224 41L271 333L90 652Q77 676 86 694T120 712Q136 712 145 705T163 681L318 406L567 687Q579 701 589 706T613 712Q636 712 645 693T635 652L353 334L305 34Q299 -7 258 -7ZM409
769Q396 756 383 759T364 774T368 799L467 929Q479 945 493 946T519 940T533 919T523 892L409 769Z" />
<glyph unicode="&#xde;" glyph-name="Thorn" horiz-adv-x="634" d="M89 -7Q70 -7 61 6T55 42L154 668Q161 710 202 710Q222 710 231 699T238 670L223 578H395Q503 578 562 530T621 389Q621 281 554 218T357 154H156L136 34Q130 -7 89 -7ZM166 223H363Q449 223
494 264T539 383Q539 449 501 479T388 510H212L166 223Z" />
<glyph unicode="&#xdf;" glyph-name="germandbls" horiz-adv-x="615" d="M378 -9Q332 -9 287 3T213 37Q198 46 195 60T198 85T216 100T244 94Q302 55 376 55Q431 55 460 75T490 135Q490 160 471 181T396 221Q330 244 303 273T275 344Q275 371 284 392T314 434T373
484Q405 508 423 530T441 585Q441 612 422 631T363 651Q222 651 196 491L123 32Q118 -7 79 -7Q36 -7 44 39L114 483Q131 596 193 655T365 714Q437 714 478 679T520 594Q520 545 495 514T428 448Q391 420 372 400T352 353Q352 330 371 312T443 277Q503 256 535 226T567
143Q567 71 515 31T378 -9Z" />
<glyph unicode="&#xe0;" glyph-name="agrave" horiz-adv-x="530" d="M199 -9Q157 -9 121 10T62 62T40 137Q40 214 105 248T315 282H384L389 312Q399 369 374 399T286 430Q250 430 217 423T150 397Q134 388 121 392T103 407T102 432T126 455Q164 476 208 485T295
495Q397 495 438 439T464 290L423 33Q417 -7 379 -7Q340 -7 347 39L353 76Q328 33 286 12T199 -9ZM219 52Q273 52 316 88T370 190L376 229H326Q249 229 205 221T141 194T122 142Q122 98 151 75T219 52ZM280 558L173 711Q162 728 166 741T183 761T211 763T236 740L326
584Q334 567 327 556T305 543T280 558Z" />
<glyph unicode="&#xe1;" glyph-name="aacute" horiz-adv-x="530" d="M199 -9Q157 -9 121 10T62 62T40 137Q40 214 105 248T315 282H384L389 312Q399 369 374 399T286 430Q250 430 217 423T150 397Q134 388 121 392T103 407T102 432T126 455Q164 476 208 485T295
495Q397 495 438 439T464 290L423 33Q417 -7 379 -7Q340 -7 347 39L353 76Q328 33 286 12T199 -9ZM219 52Q273 52 316 88T370 190L376 229H326Q249 229 205 221T141 194T122 142Q122 98 151 75T219 52ZM348 555Q336 542 323 543T304 556T308 584L415 745Q427 763
441 765T467 760T481 738T473 710L348 555Z" />
<glyph unicode="&#xe2;" glyph-name="acircumflex" horiz-adv-x="530" d="M199 -9Q157 -9 121 10T62 62T40 137Q40 214 105 248T315 282H384L389 312Q399 369 374 399T286 430Q250 430 217 423T150 397Q134 388 121 392T103 407T102 432T126 455Q164 476 208 485T295
495Q397 495 438 439T464 290L423 33Q417 -7 379 -7Q340 -7 347 39L353 76Q328 33 286 12T199 -9ZM219 52Q273 52 316 88T370 190L376 229H326Q249 229 205 221T141 194T122 142Q122 98 151 75T219 52ZM448 580Q456 564 447 554T424 543T403 557L331 699L225 556Q215
543 202 543T181 554T185 581L284 734Q304 766 336 766Q367 766 381 734L448 580Z" />
<glyph unicode="&#xe3;" glyph-name="atilde" horiz-adv-x="530" d="M199 -9Q157 -9 121 10T62 62T40 137Q40 214 105 248T315 282H384L389 312Q399 369 374 399T286 430Q250 430 217 423T150 397Q134 388 121 392T103 407T102 432T126 455Q164 476 208 485T295
495Q397 495 438 439T464 290L423 33Q417 -7 379 -7Q340 -7 347 39L353 76Q328 33 286 12T199 -9ZM219 52Q273 52 316 88T370 190L376 229H326Q249 229 205 221T141 194T122 142Q122 98 151 75T219 52ZM164 588Q139 590 145 615Q158 669 187 697T257 726Q281 726
298 715T330 688T359 662T393 650Q415 650 432 666T457 712Q463 733 485 731Q510 730 504 704Q491 650 462 622T393 593Q368 593 351 604T318 631T289 657T256 669Q234 669 217 653T192 608Q186 586 164 588Z" />
<glyph unicode="&#xe4;" glyph-name="adieresis" horiz-adv-x="530" d="M199 -9Q157 -9 121 10T62 62T40 137Q40 214 105 248T315 282H384L389 312Q399 369 374 399T286 430Q250 430 217 423T150 397Q134 388 121 392T103 407T102 432T126 455Q164 476 208 485T295
495Q397 495 438 439T464 290L423 33Q417 -7 379 -7Q340 -7 347 39L353 76Q328 33 286 12T199 -9ZM219 52Q273 52 316 88T370 190L376 229H326Q249 229 205 221T141 194T122 142Q122 98 151 75T219 52ZM412 606Q372 606 372 643Q372 669 386 684T426 699Q466 699
466 662Q466 635 452 621T412 606ZM238 606Q197 606 197 643Q197 669 211 684T251 699Q292 699 292 662Q292 635 278 621T238 606Z" />
<glyph unicode="&#xe5;" glyph-name="aring" horiz-adv-x="530" d="M199 -9Q157 -9 121 10T62 62T40 137Q40 214 105 248T315 282H384L389 312Q399 369 374 399T286 430Q250 430 217 423T150 397Q134 388 121 392T103 407T102 432T126 455Q164 476 208 485T295
495Q397 495 438 439T464 290L423 33Q417 -7 379 -7Q340 -7 347 39L353 76Q328 33 286 12T199 -9ZM219 52Q273 52 316 88T370 190L376 229H326Q249 229 205 221T141 194T122 142Q122 98 151 75T219 52ZM334 547Q284 547 250 580T215 662Q215 711 249 744T334 778Q384
778 418 745T453 662Q453 614 419 581T334 547ZM334 590Q365 590 385 611T406 662Q406 693 386 713T334 734Q302 734 282 714T262 662Q262 632 282 611T334 590Z" />
<glyph unicode="&#xe6;" glyph-name="ae" horiz-adv-x="861" d="M210 -9Q166 -9 127 8T64 58T40 137Q40 214 105 248T315 282H387L390 304Q411 430 286 430Q250 430 217 423T150 397Q134 388 121 392T103 407T102 432T126 455Q164 476 208 485T295 495Q415 495
448 407Q480 448 526 471T633 495Q691 495 730 475T792 420T820 343T822 259L820 248Q818 228 794 228H453Q445 150 484 103T602 56Q638 56 671 64T736 94Q758 108 772 100T786 73T766 40Q732 16 686 4T598 -9Q524 -9 474 21T401 106Q372 47 321 19T210 -9ZM631
435Q580 435 546 413T491 356T462 282H756Q759 324 748 359T709 414T631 435ZM219 53Q273 53 316 86T371 183L378 228H326Q249 228 205 220T141 193T122 142Q122 98 151 76T219 53Z" />
<glyph unicode="&#xe7;" glyph-name="ccedilla" horiz-adv-x="463" d="M258 -9Q150 -9 98 51T45 207Q45 261 60 312T107 404T188 470T305 495Q343 495 378 485T440 457Q458 446 462 432T461 406T444 390T418 395Q370 429 308 429Q243 429 204 397T146 313T128
208Q128 140 160 99T268 57Q291 57 317 64T370 89Q387 100 401 91T416 63T398 32Q371 13 332 2T258 -9ZM221 -192Q183 -192 152 -182Q136 -177 134 -163T141 -140T167 -136Q190 -145 222 -145Q250 -145 267 -135T284 -106Q284 -80 249 -80Q232 -80 214 -85Q197
-89 191 -83Q185 -77 190 -62L216 20H267L246 -43Q256 -42 264 -42Q298 -42 319 -58T340 -105Q340 -144 306 -168T221 -192Z" />
<glyph unicode="&#xe8;" glyph-name="egrave" horiz-adv-x="532" d="M270 -9Q166 -9 105 48T44 206Q44 285 76 350T166 455T304 495Q380 495 424 461T484 371T493 254Q490 237 484 232T462 226H123Q116 148 156 102T274 56Q310 56 343 64T408 94Q430 108 444 100T458
73T438 40Q404 16 358 4T270 -9ZM303 435Q250 435 215 413T160 354T131 279H427Q433 345 405 390T303 435ZM287 558L180 711Q169 728 173 741T190 761T218 763T243 740L333 584Q341 567 334 556T312 543T287 558Z" />
<glyph unicode="&#xe9;" glyph-name="eacute" horiz-adv-x="532" d="M270 -9Q166 -9 105 48T44 206Q44 285 76 350T166 455T304 495Q380 495 424 461T484 371T493 254Q490 237 484 232T462 226H123Q116 148 156 102T274 56Q310 56 343 64T408 94Q430 108 444 100T458
73T438 40Q404 16 358 4T270 -9ZM303 435Q250 435 215 413T160 354T131 279H427Q433 345 405 390T303 435ZM355 555Q343 542 330 543T311 556T315 584L422 745Q434 763 448 765T474 760T488 738T480 710L355 555Z" />
<glyph unicode="&#xea;" glyph-name="ecircumflex" horiz-adv-x="532" d="M270 -9Q166 -9 105 48T44 206Q44 285 76 350T166 455T304 495Q380 495 424 461T484 371T493 254Q490 237 484 232T462 226H123Q116 148 156 102T274 56Q310 56 343 64T408 94Q430 108
444 100T458 73T438 40Q404 16 358 4T270 -9ZM303 435Q250 435 215 413T160 354T131 279H427Q433 345 405 390T303 435ZM455 580Q463 564 454 554T431 543T410 557L338 699L232 556Q222 543 209 543T188 554T192 581L291 734Q311 766 343 766Q374 766 388 734L455
580Z" />
<glyph unicode="&#xeb;" glyph-name="edieresis" horiz-adv-x="532" d="M270 -9Q166 -9 105 48T44 206Q44 285 76 350T166 455T304 495Q380 495 424 461T484 371T493 254Q490 237 484 232T462 226H123Q116 148 156 102T274 56Q310 56 343 64T408 94Q430 108 444
100T458 73T438 40Q404 16 358 4T270 -9ZM303 435Q250 435 215 413T160 354T131 279H427Q433 345 405 390T303 435ZM419 606Q379 606 379 643Q379 669 393 684T433 699Q473 699 473 662Q473 635 459 621T419 606ZM245 606Q204 606 204 643Q204 669 218 684T258
699Q299 699 299 662Q299 635 285 621T245 606Z" />
<glyph unicode="&#xec;" glyph-name="igrave" horiz-adv-x="232" d="M76 -7Q57 -7 49 5T43 41L109 453Q115 493 155 493Q174 493 183 481T188 446L123 33Q116 -7 76 -7ZM130 558L23 711Q12 728 16 741T33 761T61 763T86 740L176 584Q184 567 177 556T155 543T130 558Z" />
<glyph unicode="&#xed;" glyph-name="iacute" horiz-adv-x="232" d="M76 -7Q57 -7 49 5T43 41L109 453Q115 493 155 493Q174 493 183 481T188 446L123 33Q116 -7 76 -7ZM198 555Q186 542 173 543T154 556T158 584L265 745Q277 763 291 765T317 760T331 738T323
710L198 555Z" />
<glyph unicode="&#xee;" glyph-name="icircumflex" horiz-adv-x="232" d="M76 -7Q57 -7 49 5T43 41L109 453Q115 493 155 493Q174 493 183 481T188 446L123 33Q116 -7 76 -7ZM298 580Q306 564 297 554T274 543T253 557L181 699L75 556Q65 543 52 543T31 554T35
581L134 734Q154 766 186 766Q217 766 231 734L298 580Z" />
<glyph unicode="&#xef;" glyph-name="idieresis" horiz-adv-x="232" d="M76 -7Q57 -7 49 5T43 41L109 453Q115 493 155 493Q174 493 183 481T188 446L123 33Q116 -7 76 -7ZM262 606Q222 606 222 643Q222 669 236 684T276 699Q316 699 316 662Q316 635 302 621T262
606ZM88 606Q47 606 47 643Q47 669 61 684T101 699Q142 699 142 662Q142 635 128 621T88 606Z" />
<glyph unicode="&#xf0;" glyph-name="eth" horiz-adv-x="560" d="M253 -9Q193 -9 145 15T69 84T41 188Q41 266 73 325T162 418T289 452Q341 452 383 432T447 369Q435 513 339 592L207 535Q191 529 181 537T171 559T188 580L291 624Q260 642 221 654Q200 660 197
676T204 703T239 708Q274 697 304 684T360 654L482 706Q500 714 510 705T519 683T501 662L404 620Q465 565 493 487T520 314Q520 251 505 193T457 90T374 18T253 -9ZM259 57Q306 57 344 80T406 147T429 253Q429 317 393 352T294 387Q246 387 208 364T146 298T123
191Q123 128 159 93T259 57Z" />
<glyph unicode="&#xf1;" glyph-name="ntilde" horiz-adv-x="568" d="M77 -6Q58 -6 50 7T44 42L109 453Q115 493 156 493Q174 493 182 482T187 448L180 403Q207 447 251 471T355 495Q436 495 477 446T502 294L461 33Q455 -6 415 -6Q396 -6 387 6T381 41L421 294Q443
429 331 429Q258 429 215 384T160 264L124 34Q118 -6 77 -6ZM181 588Q156 590 162 615Q175 669 204 697T274 726Q298 726 315 715T347 688T376 662T410 650Q432 650 449 666T474 712Q480 733 502 731Q527 730 521 704Q508 650 479 622T410 593Q385 593 368 604T335
631T306 657T273 669Q251 669 234 653T209 608Q203 586 181 588Z" />
<glyph unicode="&#xf2;" glyph-name="ograve" horiz-adv-x="556" d="M255 -9Q157 -9 101 48T44 205Q44 287 76 353T165 457T301 495Q399 495 455 438T511 281Q511 199 480 134T390 30T255 -9ZM258 56Q313 56 351 87T409 169T429 284Q429 356 395 393T298 430Q243
430 205 400T146 317T126 202Q126 131 161 94T258 56ZM293 558L186 711Q175 728 179 741T196 761T224 763T249 740L339 584Q347 567 340 556T318 543T293 558Z" />
<glyph unicode="&#xf3;" glyph-name="oacute" horiz-adv-x="556" d="M255 -9Q157 -9 101 48T44 205Q44 287 76 353T165 457T301 495Q399 495 455 438T511 281Q511 199 480 134T390 30T255 -9ZM258 56Q313 56 351 87T409 169T429 284Q429 356 395 393T298 430Q243
430 205 400T146 317T126 202Q126 131 161 94T258 56ZM361 555Q349 542 336 543T317 556T321 584L428 745Q440 763 454 765T480 760T494 738T486 710L361 555Z" />
<glyph unicode="&#xf4;" glyph-name="ocircumflex" horiz-adv-x="556" d="M255 -9Q157 -9 101 48T44 205Q44 287 76 353T165 457T301 495Q399 495 455 438T511 281Q511 199 480 134T390 30T255 -9ZM258 56Q313 56 351 87T409 169T429 284Q429 356 395 393T298
430Q243 430 205 400T146 317T126 202Q126 131 161 94T258 56ZM461 580Q469 564 460 554T437 543T416 557L344 699L238 556Q228 543 215 543T194 554T198 581L297 734Q317 766 349 766Q380 766 394 734L461 580Z" />
<glyph unicode="&#xf5;" glyph-name="otilde" horiz-adv-x="556" d="M255 -9Q157 -9 101 48T44 205Q44 287 76 353T165 457T301 495Q399 495 455 438T511 281Q511 199 480 134T390 30T255 -9ZM258 56Q313 56 351 87T409 169T429 284Q429 356 395 393T298 430Q243
430 205 400T146 317T126 202Q126 131 161 94T258 56ZM177 588Q152 590 158 615Q171 669 200 697T270 726Q294 726 311 715T343 688T372 662T406 650Q428 650 445 666T470 712Q476 733 498 731Q523 730 517 704Q504 650 475 622T406 593Q381 593 364 604T331 631T302
657T269 669Q247 669 230 653T205 608Q199 586 177 588Z" />
<glyph unicode="&#xf6;" glyph-name="odieresis" horiz-adv-x="556" d="M255 -9Q157 -9 101 48T44 205Q44 287 76 353T165 457T301 495Q399 495 455 438T511 281Q511 199 480 134T390 30T255 -9ZM258 56Q313 56 351 87T409 169T429 284Q429 356 395 393T298 430Q243
430 205 400T146 317T126 202Q126 131 161 94T258 56ZM425 606Q385 606 385 643Q385 669 399 684T439 699Q479 699 479 662Q479 635 465 621T425 606ZM251 606Q210 606 210 643Q210 669 224 684T264 699Q305 699 305 662Q305 635 291 621T251 606Z" />
<glyph unicode="&#xf7;" glyph-name="divide" horiz-adv-x="600" d="M325 439Q306 439 296 449T285 477Q285 501 299 517T340 533Q380 533 380 494Q380 470 366 455T325 439ZM89 256Q56 256 56 281Q56 318 93 318H524Q558 318 558 292Q558 256 521 256H89ZM262
41Q243 41 233 51T222 80Q222 103 236 119T277 135Q316 135 316 97Q316 73 302 57T262 41Z" />
<glyph unicode="&#xf8;" glyph-name="oslash" horiz-adv-x="556" d="M116 -24Q105 -38 91 -35T71 -20T75 9L103 47Q45 104 45 206Q45 288 77 353T166 457T301 495Q365 495 413 470L442 510Q453 524 467 521T487 505T482 477L454 439Q512 382 512 281Q512 199 480
134T391 30T256 -9Q192 -9 145 16L116 -24ZM121 202Q121 142 146 105L373 416Q342 433 297 433Q241 433 202 403T142 320T121 202ZM259 53Q315 53 354 84T414 167T435 285Q435 344 411 380L184 70Q215 53 259 53Z" />
<glyph unicode="&#xf9;" glyph-name="ugrave" horiz-adv-x="561" d="M211 -9Q132 -9 91 40T66 193L107 455Q113 493 152 493Q172 493 181 481T187 448L147 193Q126 58 235 58Q304 58 347 103T401 223L437 455Q443 493 482 493Q524 493 518 449L452 32Q446 -7 408
-7Q367 -7 374 37L380 82Q353 38 310 15T211 -9ZM290 559L183 712Q172 729 176 742T193 762T221 764T246 741L336 585Q344 568 337 557T315 544T290 559Z" />
<glyph unicode="&#xfa;" glyph-name="uacute" horiz-adv-x="561" d="M211 -9Q132 -9 91 40T66 193L107 455Q113 493 152 493Q172 493 181 481T187 448L147 193Q126 58 235 58Q304 58 347 103T401 223L437 455Q443 493 482 493Q524 493 518 449L452 32Q446 -7 408
-7Q367 -7 374 37L380 82Q353 38 310 15T211 -9ZM358 556Q346 543 333 544T314 557T318 585L425 746Q437 764 451 766T477 761T491 739T483 711L358 556Z" />
<glyph unicode="&#xfb;" glyph-name="ucircumflex" horiz-adv-x="561" d="M211 -9Q132 -9 91 40T66 193L107 455Q113 493 152 493Q172 493 181 481T187 448L147 193Q126 58 235 58Q304 58 347 103T401 223L437 455Q443 493 482 493Q524 493 518 449L452 32Q446
-7 408 -7Q367 -7 374 37L380 82Q353 38 310 15T211 -9ZM458 581Q466 565 457 555T434 544T413 558L341 700L235 557Q225 544 212 544T191 555T195 582L294 735Q314 767 346 767Q377 767 391 735L458 581Z" />
<glyph unicode="&#xfc;" glyph-name="udieresis" horiz-adv-x="561" d="M211 -9Q132 -9 91 40T66 193L107 455Q113 493 152 493Q172 493 181 481T187 448L147 193Q126 58 235 58Q304 58 347 103T401 223L437 455Q443 493 482 493Q524 493 518 449L452 32Q446 -7
408 -7Q367 -7 374 37L380 82Q353 38 310 15T211 -9ZM422 607Q382 607 382 644Q382 670 396 685T436 700Q476 700 476 663Q476 636 462 622T422 607ZM248 607Q207 607 207 644Q207 670 221 685T261 700Q302 700 302 663Q302 636 288 622T248 607Z" />
<glyph unicode="&#xfd;" glyph-name="yacute" horiz-adv-x="514" d="M119 -187Q95 -187 88 -171T94 -132L177 8L62 436Q55 461 65 477T99 493Q117 493 125 485T139 456L229 92L443 464Q459 493 487 493Q511 493 519 477T515 438L163 -157Q154 -172 145 -179T119
-187ZM327 555Q315 542 302 543T283 556T287 584L394 745Q406 763 420 765T446 760T460 738T452 710L327 555Z" />
<glyph unicode="&#xfe;" glyph-name="thorn" horiz-adv-x="583" d="M48 -187Q29 -187 20 -175T15 -140L143 671Q150 712 190 712Q231 712 223 666L183 408Q210 449 253 472T351 495Q436 495 487 439T539 287Q539 207 511 140T428 32T295 -9Q241 -9 197 16T133
94L94 -148Q88 -187 48 -187ZM285 56Q341 56 379 87T437 169T457 284Q457 356 422 393T326 430Q270 430 232 400T174 317T154 202Q154 131 189 94T285 56Z" />
<glyph unicode="&#xff;" glyph-name="ydieresis" horiz-adv-x="514" d="M119 -187Q95 -187 88 -171T94 -132L177 8L62 436Q55 461 65 477T99 493Q117 493 125 485T139 456L229 92L443 464Q459 493 487 493Q511 493 519 477T515 438L163 -157Q154 -172 145 -179T119
-187ZM391 606Q351 606 351 643Q351 669 365 684T405 699Q445 699 445 662Q445 635 431 621T391 606ZM217 606Q176 606 176 643Q176 669 190 684T230 699Q271 699 271 662Q271 635 257 621T217 606Z" />
<glyph unicode="&#x2013;" glyph-name="endash" horiz-adv-x="500" d="M24 240Q-6 240 -6 264Q-6 276 3 284T27 293H483Q514 293 514 270Q514 256 504 248T481 240H24Z" />
<glyph unicode="&#x2014;" glyph-name="emdash" horiz-adv-x="1000" d="M27 240Q-3 240 -3 264Q-3 276 6 284T29 293H980Q1011 293 1011 270Q1011 256 1001 248T978 240H27Z" />
<glyph unicode="&#x2018;" glyph-name="quoteleft" horiz-adv-x="228" d="M173 695Q188 709 201 706T219 689T209 660Q179 630 170 601Q191 598 204 584T217 547Q217 523 202 508T163 493Q137 493 124 509T110 554Q110 634 173 695Z" />
<glyph unicode="&#x2019;" glyph-name="quoteright" horiz-adv-x="228" d="M168 506Q153 492 140 495T122 512T133 541Q163 571 172 600Q150 603 138 617T125 654Q125 678 139 693T179 709Q204 709 217 692T231 647Q231 607 215 572T168 506Z" />
<glyph unicode="&#x201a;" glyph-name="quotesinglbase" horiz-adv-x="228" d="M74 -97Q59 -111 45 -108T27 -91T38 -62Q68 -32 77 -3Q55 0 43 15T30 51Q30 75 44 90T84 106Q109 106 122 90T136 44Q136 -36 74 -97Z" />
<glyph unicode="&#x201c;" glyph-name="quotedblleft" horiz-adv-x="394" d="M173 695Q188 709 201 706T219 689T209 660Q179 630 170 601Q191 598 204 584T217 547Q217 523 202 508T163 493Q137 493 124 509T110 554Q110 634 173 695ZM339 695Q354 709 367 706T385
689T375 660Q345 630 336 601Q357 598 370 584T383 547Q383 523 368 508T329 493Q303 493 290 509T276 554Q276 634 339 695Z" />
<glyph unicode="&#x201d;" glyph-name="quotedblright" horiz-adv-x="394" d="M168 506Q153 492 140 495T122 512T133 541Q163 571 172 600Q150 603 138 617T125 654Q125 678 139 693T179 709Q204 709 217 692T231 647Q231 607 215 572T168 506ZM334 506Q319 492
306 495T288 512T299 541Q329 571 338 600Q316 603 304 617T291 654Q291 678 305 693T345 709Q370 709 383 692T397 647Q397 607 381 572T334 506Z" />
<glyph unicode="&#x201e;" glyph-name="quotedblbase" horiz-adv-x="394" d="M74 -97Q59 -111 45 -108T27 -91T38 -62Q68 -32 77 -3Q55 0 43 15T30 51Q30 75 44 90T84 106Q109 106 122 90T136 44Q136 -36 74 -97ZM240 -97Q225 -111 211 -108T193 -91T204 -62Q234
-32 243 -3Q221 0 209 15T196 51Q196 75 210 90T250 106Q275 106 288 90T302 44Q302 -36 240 -97Z" />
<glyph unicode="&#x2022;" glyph-name="bullet" horiz-adv-x="524" d="M265 88Q216 88 175 111T109 175T84 265Q84 311 107 351T172 417T265 443Q313 443 354 420T421 357T446 265Q446 216 422 176T356 112T265 88Z" />
<glyph unicode="&#x2039;" glyph-name="guilsinglleft" horiz-adv-x="260" d="M163 91Q148 85 135 90T116 111L63 238Q58 250 59 264T70 293L176 431Q193 453 218 441Q232 435 233 420T222 386L135 262L179 135Q190 101 163 91Z" />
<glyph unicode="&#x203a;" glyph-name="guilsinglright" horiz-adv-x="260" d="M48 90Q35 97 34 111T45 145L132 269L88 397Q77 430 103 440Q118 446 131 441T151 421L204 294Q209 282 208 268T196 239L91 101Q73 78 48 90Z" />
</font>
</defs>
</svg>
